<svg id="Layer_1" data-name="Layer 1" xmlns="http://www.w3.org/2000/svg" width="465.38" height="193" viewBox="0 0 465.38 193"><defs><style>.cls-1{fill:#c3eefe;stroke:#10a7e3;stroke-linejoin:bevel;stroke-width:2px;}.cls-2{fill:#fff;}.cls-3{fill:#ccfbf0;stroke:#14bf96;stroke-width:0.53px;}.cls-4{fill:#304752;}.cls-5{fill:#10a7e3;}</style></defs><title>ip packet envelope</title><path id="path3192" class="cls-1" d="M276.15,189.23H464.38V63.74L376.54,1H364L276.15,63.74Z"/><path id="path3192-2" data-name="path3192" class="cls-2" d="M276.15,149.6H464.38V79.12L376.54,16.37H364L276.15,79.12Z"/><path class="cls-3" d="M446.06,32.91v85.18s-34.3-6.1-59.8,14.53c-26.75,21.65-43.17,45.34-59.18,37.47s-31.73-36.26-31.73-36.26V32.91Z"/><path class="cls-4" d="M357.15,60.42a10.71,10.71,0,0,1-.68,3.88,8.43,8.43,0,0,1-1.91,3,8.22,8.22,0,0,1-3,1.93,10.22,10.22,0,0,1-3.82.69h-7.09v-19h7.09a10.43,10.43,0,0,1,3.82.68,8.37,8.37,0,0,1,3,1.94,8.56,8.56,0,0,1,1.91,3A10.73,10.73,0,0,1,357.15,60.42Zm-2.64,0a9.48,9.48,0,0,0-.48-3.13A6.43,6.43,0,0,0,352.68,55a5.73,5.73,0,0,0-2.12-1.45,7.28,7.28,0,0,0-2.78-.51h-4.52V67.82h4.52a7.28,7.28,0,0,0,2.78-.5,5.85,5.85,0,0,0,2.12-1.45A6.3,6.3,0,0,0,354,63.54,9.46,9.46,0,0,0,354.51,60.42Z"/><path class="cls-4" d="M359.6,58.37a7.64,7.64,0,0,1,2.4-1.6,7.49,7.49,0,0,1,2.85-.53,5,5,0,0,1,2,.37,4.2,4.2,0,0,1,1.47,1,4.37,4.37,0,0,1,.9,1.61,6.51,6.51,0,0,1,.31,2.07v8.59h-1a1,1,0,0,1-.53-.12.75.75,0,0,1-.29-.44l-.26-1.27c-.36.32-.7.61-1,.86a5.25,5.25,0,0,1-1.06.64,5.74,5.74,0,0,1-1.19.4,6.61,6.61,0,0,1-1.39.14,4.73,4.73,0,0,1-1.48-.22,3.45,3.45,0,0,1-1.19-.66,3,3,0,0,1-.81-1.1,3.89,3.89,0,0,1-.3-1.59,2.88,2.88,0,0,1,.44-1.53,3.81,3.81,0,0,1,1.41-1.3,9.3,9.3,0,0,1,2.56-.94,20,20,0,0,1,3.87-.42v-1a3.6,3.6,0,0,0-.67-2.37,2.46,2.46,0,0,0-2-.8,4.12,4.12,0,0,0-1.46.22,4.85,4.85,0,0,0-1,.49c-.29.18-.54.34-.75.49a1.09,1.09,0,0,1-.61.22.63.63,0,0,1-.41-.13,1.07,1.07,0,0,1-.29-.31Zm7.62,5.49a19.82,19.82,0,0,0-2.77.26,8,8,0,0,0-1.87.54,2.62,2.62,0,0,0-1.05.78,1.65,1.65,0,0,0-.33,1,2.14,2.14,0,0,0,.18.91,1.58,1.58,0,0,0,.47.63,2,2,0,0,0,.7.36,3.45,3.45,0,0,0,.87.11,4.57,4.57,0,0,0,1.14-.13,4,4,0,0,0,1-.36,5.51,5.51,0,0,0,.88-.57,6.36,6.36,0,0,0,.81-.76Z"/><path class="cls-4" d="M377.07,70.12a3.22,3.22,0,0,1-2.44-.89,3.54,3.54,0,0,1-.86-2.56V58.45h-1.62a.51.51,0,0,1-.35-.12.5.5,0,0,1-.15-.39V57l2.2-.28.54-4.15a.67.67,0,0,1,.18-.33.55.55,0,0,1,.37-.12h1.19v4.62H380v1.71h-3.88v8.06a1.72,1.72,0,0,0,.41,1.26,1.41,1.41,0,0,0,1.06.41,1.76,1.76,0,0,0,.64-.1,2.28,2.28,0,0,0,.47-.22,3,3,0,0,0,.34-.21.45.45,0,0,1,.25-.1.41.41,0,0,1,.33.22l.69,1.13a4.35,4.35,0,0,1-1.47.89A5,5,0,0,1,377.07,70.12Z"/><path class="cls-4" d="M382.11,58.37a7.64,7.64,0,0,1,2.4-1.6,7.42,7.42,0,0,1,2.85-.53,5,5,0,0,1,2,.37,4.2,4.2,0,0,1,1.47,1,4.37,4.37,0,0,1,.9,1.61,6.81,6.81,0,0,1,.31,2.07v8.59H391a1,1,0,0,1-.53-.12.71.71,0,0,1-.29-.44l-.27-1.27c-.35.32-.7.61-1,.86a5.54,5.54,0,0,1-1.06.64,5.74,5.74,0,0,1-1.19.4,6.7,6.7,0,0,1-1.4.14,4.71,4.71,0,0,1-1.47-.22,3.5,3.5,0,0,1-1.2-.66,3.12,3.12,0,0,1-.81-1.1,3.89,3.89,0,0,1-.3-1.59,3,3,0,0,1,.44-1.53,3.85,3.85,0,0,1,1.42-1.3,9.18,9.18,0,0,1,2.56-.94,20,20,0,0,1,3.87-.42v-1a3.6,3.6,0,0,0-.68-2.37,2.45,2.45,0,0,0-2-.8,4.18,4.18,0,0,0-1.47.22,5.38,5.38,0,0,0-1,.49c-.28.18-.53.34-.74.49a1.12,1.12,0,0,1-.62.22.67.67,0,0,1-.41-.13,1.23,1.23,0,0,1-.29-.31Zm7.62,5.49a20,20,0,0,0-2.78.26,8.28,8.28,0,0,0-1.87.54,2.51,2.51,0,0,0-1,.78,1.65,1.65,0,0,0-.33,1,2.31,2.31,0,0,0,.17.91,1.8,1.8,0,0,0,.47.63,2.07,2.07,0,0,0,.71.36,3.45,3.45,0,0,0,.87.11,4.57,4.57,0,0,0,1.14-.13,4.19,4.19,0,0,0,1-.36,5.42,5.42,0,0,0,.87-.57,7.17,7.17,0,0,0,.82-.76Z"/><polygon class="cls-1" points="276.15 69.2 276.15 189.23 357.46 125.9 276.15 69.2"/><polyline class="cls-1" points="383.07 125.9 464.38 69.2 464.38 189.23"/><path id="path3196" class="cls-1" d="M464.38,189.23H276.15L359.91,124l4.08-3.17h12.55Z"/><rect class="cls-1" x="1" y="64.86" width="190.26" height="127.14"/><path d="M13.23,76.1a.44.44,0,0,1-.13.14.22.22,0,0,1-.16.05.41.41,0,0,1-.26-.11l-.38-.24a3.44,3.44,0,0,0-.54-.25,2.39,2.39,0,0,0-.76-.11,2.19,2.19,0,0,0-.75.12,1.59,1.59,0,0,0-.54.31,1.23,1.23,0,0,0-.32.46,1.3,1.3,0,0,0-.11.56,1,1,0,0,0,.19.65,1.58,1.58,0,0,0,.51.44,3.3,3.3,0,0,0,.71.31l.82.28c.28.1.55.2.82.32a3.06,3.06,0,0,1,.71.45,2.25,2.25,0,0,1,.51.67,2.23,2.23,0,0,1,.19,1,3.13,3.13,0,0,1-.21,1.15,2.7,2.7,0,0,1-.6.93,2.93,2.93,0,0,1-1,.62,3.58,3.58,0,0,1-1.32.23A4,4,0,0,1,9,83.73a4,4,0,0,1-1.27-.88l.37-.6a.34.34,0,0,1,.12-.12.26.26,0,0,1,.17,0,.32.32,0,0,1,.19.07l.25.17.31.23a2.48,2.48,0,0,0,.4.22A3,3,0,0,0,10,83a3.1,3.1,0,0,0,.64.06,2.45,2.45,0,0,0,.8-.12,1.65,1.65,0,0,0,.59-.35,1.52,1.52,0,0,0,.38-.53,1.75,1.75,0,0,0,.13-.7,1.22,1.22,0,0,0-.19-.69,1.59,1.59,0,0,0-.51-.45,3.3,3.3,0,0,0-.71-.31l-.82-.26a8.11,8.11,0,0,1-.82-.31,2.48,2.48,0,0,1-.71-.46,2,2,0,0,1-.51-.69,2.72,2.72,0,0,1,0-2,2.66,2.66,0,0,1,.56-.82,2.94,2.94,0,0,1,.9-.57A3.39,3.39,0,0,1,11,74.54a4,4,0,0,1,1.42.24,3.47,3.47,0,0,1,1.12.72Z"/><path d="M18,77.27a3.38,3.38,0,0,1,1.3.24,2.87,2.87,0,0,1,1,.68,3.16,3.16,0,0,1,.63,1.07,4.77,4.77,0,0,1,0,2.8,3.06,3.06,0,0,1-.63,1.07,2.74,2.74,0,0,1-1,.68,3.67,3.67,0,0,1-2.61,0,2.66,2.66,0,0,1-1-.68,3.06,3.06,0,0,1-.63-1.07,4.33,4.33,0,0,1-.22-1.4,4.37,4.37,0,0,1,.22-1.4,3.16,3.16,0,0,1,.63-1.07,2.78,2.78,0,0,1,1-.68A3.4,3.4,0,0,1,18,77.27Zm0,5.87a1.7,1.7,0,0,0,1.46-.65,3,3,0,0,0,.48-1.82,3.07,3.07,0,0,0-.48-1.84A1.72,1.72,0,0,0,18,78.18a1.91,1.91,0,0,0-.86.17,1.52,1.52,0,0,0-.61.48,2.31,2.31,0,0,0-.37.79,4.21,4.21,0,0,0-.12,1,2.94,2.94,0,0,0,.49,1.82A1.69,1.69,0,0,0,18,83.14Z"/><path d="M28,77.37V84H27.3a.29.29,0,0,1-.31-.24L26.9,83a3.83,3.83,0,0,1-1,.76,2.6,2.6,0,0,1-1.23.29,2.37,2.37,0,0,1-.95-.18,2,2,0,0,1-.69-.5,2.07,2.07,0,0,1-.42-.79,3.64,3.64,0,0,1-.14-1v-4.2h1.16v4.2A1.76,1.76,0,0,0,24,82.73a1.28,1.28,0,0,0,1,.41,1.91,1.91,0,0,0,1-.25,2.85,2.85,0,0,0,.82-.67V77.37Z"/><path d="M30.92,78.69a2.87,2.87,0,0,1,.77-1,1.64,1.64,0,0,1,1.11-.39,1.75,1.75,0,0,1,.4,0,1.16,1.16,0,0,1,.34.14l-.08.87a.19.19,0,0,1-.2.16,1.16,1.16,0,0,1-.27,0,2.23,2.23,0,0,0-.39,0,1.6,1.6,0,0,0-.56.09,1.21,1.21,0,0,0-.43.27,1.94,1.94,0,0,0-.35.44,3.85,3.85,0,0,0-.27.61V84H29.82V77.37h.66a.44.44,0,0,1,.27.07.45.45,0,0,1,.09.25Z"/><path d="M38.87,78.54a.36.36,0,0,1-.1.11.24.24,0,0,1-.15,0,.43.43,0,0,1-.21-.08l-.29-.18a3.52,3.52,0,0,0-.42-.18,2.17,2.17,0,0,0-.62-.08,2,2,0,0,0-.85.17,1.71,1.71,0,0,0-.63.5,2.31,2.31,0,0,0-.37.79,3.68,3.68,0,0,0-.13,1,3.78,3.78,0,0,0,.14,1.06,2.37,2.37,0,0,0,.38.78,1.67,1.67,0,0,0,.61.48,1.71,1.71,0,0,0,.8.17,1.94,1.94,0,0,0,.69-.1,2.36,2.36,0,0,0,.45-.22l.3-.23a.36.36,0,0,1,.24-.1.27.27,0,0,1,.22.11l.32.42a2.32,2.32,0,0,1-.48.46,3.32,3.32,0,0,1-.59.31,2.94,2.94,0,0,1-.66.19,4,4,0,0,1-.7.06,2.88,2.88,0,0,1-1.15-.23,2.6,2.6,0,0,1-.92-.66,3.14,3.14,0,0,1-.61-1.06,4.27,4.27,0,0,1-.22-1.44,4.56,4.56,0,0,1,.2-1.36,3.19,3.19,0,0,1,.6-1.07,2.77,2.77,0,0,1,1-.71A3.21,3.21,0,0,1,37,77.27a3.14,3.14,0,0,1,1.23.22,3,3,0,0,1,.94.64Z"/><path d="M45.72,83a1.84,1.84,0,0,1-.51.45,3.19,3.19,0,0,1-.64.32,5.28,5.28,0,0,1-.71.19,4.37,4.37,0,0,1-.72.06,3.48,3.48,0,0,1-1.26-.23,2.83,2.83,0,0,1-1-.68,3.16,3.16,0,0,1-.66-1.1A4.65,4.65,0,0,1,40,80.53a3.88,3.88,0,0,1,.21-1.29,3.13,3.13,0,0,1,.61-1,2.72,2.72,0,0,1,1-.69,3.13,3.13,0,0,1,1.29-.25,2.82,2.82,0,0,1,1.09.2A2.35,2.35,0,0,1,45,78a2.63,2.63,0,0,1,.58.92,3.49,3.49,0,0,1,.2,1.25.8.8,0,0,1,0,.37.25.25,0,0,1-.22.09h-4.4a3.82,3.82,0,0,0,.17,1.08,2.1,2.1,0,0,0,.42.77,1.72,1.72,0,0,0,.65.46,2.11,2.11,0,0,0,.85.16A2.72,2.72,0,0,0,44,83a3.54,3.54,0,0,0,.54-.22,3.9,3.9,0,0,0,.38-.22.48.48,0,0,1,.27-.1.28.28,0,0,1,.22.11ZM44.78,80a2.17,2.17,0,0,0-.11-.74,1.54,1.54,0,0,0-.86-1,2,2,0,0,0-2,.35A2.27,2.27,0,0,0,41.18,80Z"/><path d="M52.1,84H50.84V74.64H52.1Z"/><path d="M57.23,74.64a5.08,5.08,0,0,1,1.54.21,2.79,2.79,0,0,1,1.08.58,2.25,2.25,0,0,1,.64.91,3.19,3.19,0,0,1,.21,1.19,3.07,3.07,0,0,1-.22,1.19,2.7,2.7,0,0,1-.67.93,2.94,2.94,0,0,1-1.09.6,4.5,4.5,0,0,1-1.49.22H55.74V84H54.48V74.64Zm0,4.83a3.13,3.13,0,0,0,1-.14,2.12,2.12,0,0,0,.69-.4,1.69,1.69,0,0,0,.43-.62,2.16,2.16,0,0,0,.14-.78,1.76,1.76,0,0,0-.55-1.39,2.38,2.38,0,0,0-1.67-.5H55.74v3.83Z"/><path d="M72.4,84h-1a.4.4,0,0,1-.27-.09.56.56,0,0,1-.16-.21l-.87-2.25H65.94l-.87,2.25a.46.46,0,0,1-.15.21.4.4,0,0,1-.27.09h-1l3.73-9.32h1.27ZM69.77,80.5l-1.46-3.79c0-.11-.09-.24-.14-.39s-.09-.31-.13-.48c-.1.35-.19.64-.28.88L66.29,80.5Z"/><path d="M78.66,74.38V84H78a.29.29,0,0,1-.31-.24l-.11-.8a3.51,3.51,0,0,1-1,.81,2.45,2.45,0,0,1-1.25.32,2.28,2.28,0,0,1-1-.22,2.13,2.13,0,0,1-.79-.64,3,3,0,0,1-.5-1,5.33,5.33,0,0,1-.18-1.45,4.56,4.56,0,0,1,.2-1.36,3.22,3.22,0,0,1,.56-1.09,2.61,2.61,0,0,1,2.08-1,2.35,2.35,0,0,1,1,.21,2.53,2.53,0,0,1,.77.57V74.38ZM77.5,78.94a2,2,0,0,0-.7-.61,2.08,2.08,0,0,0-.85-.17,1.68,1.68,0,0,0-1.41.65,3.09,3.09,0,0,0-.49,1.88,5,5,0,0,0,.11,1.1,2.07,2.07,0,0,0,.32.75A1.39,1.39,0,0,0,75,83a1.76,1.76,0,0,0,.71.13,1.93,1.93,0,0,0,1-.26,3,3,0,0,0,.78-.73Z"/><path d="M85.94,74.38V84h-.69a.29.29,0,0,1-.31-.24l-.11-.8a3.51,3.51,0,0,1-1,.81,2.45,2.45,0,0,1-1.25.32,2.28,2.28,0,0,1-1-.22,2.21,2.21,0,0,1-.79-.64,3,3,0,0,1-.5-1,5.33,5.33,0,0,1-.18-1.45,4.56,4.56,0,0,1,.2-1.36,3.22,3.22,0,0,1,.56-1.09,2.61,2.61,0,0,1,2.08-1,2.35,2.35,0,0,1,1,.21,2.53,2.53,0,0,1,.77.57V74.38Zm-1.16,4.56a2,2,0,0,0-.7-.61,2.08,2.08,0,0,0-.85-.17,1.68,1.68,0,0,0-1.41.65,3.09,3.09,0,0,0-.49,1.88,5,5,0,0,0,.11,1.1,2.07,2.07,0,0,0,.32.75,1.39,1.39,0,0,0,.53.44,1.76,1.76,0,0,0,.71.13,1.93,1.93,0,0,0,1-.26,3,3,0,0,0,.78-.73Z"/><path d="M88.87,78.69a2.87,2.87,0,0,1,.77-1,1.64,1.64,0,0,1,1.11-.39,1.75,1.75,0,0,1,.4,0,1.28,1.28,0,0,1,.34.14l-.09.87a.18.18,0,0,1-.19.16,1.16,1.16,0,0,1-.27,0,2.34,2.34,0,0,0-.39,0,1.6,1.6,0,0,0-.56.09,1.34,1.34,0,0,0-.44.27,2.23,2.23,0,0,0-.34.44,5,5,0,0,0-.28.61V84H87.77V77.37h.66a.38.38,0,0,1,.26.07.45.45,0,0,1,.1.25Z"/><path d="M97.58,83a2,2,0,0,1-.51.45,3,3,0,0,1-.65.32,5.13,5.13,0,0,1-.7.19,4.37,4.37,0,0,1-.72.06,3.4,3.4,0,0,1-1.26-.23,2.83,2.83,0,0,1-1-.68,3.16,3.16,0,0,1-.66-1.1,4.65,4.65,0,0,1-.23-1.51,3.88,3.88,0,0,1,.21-1.29,3,3,0,0,1,.61-1,2.64,2.64,0,0,1,1-.69,3.11,3.11,0,0,1,1.28-.25,2.83,2.83,0,0,1,1.1.2,2.53,2.53,0,0,1,.87.57,2.6,2.6,0,0,1,.57.92,3.49,3.49,0,0,1,.21,1.25.77.77,0,0,1-.06.37.24.24,0,0,1-.22.09H93a4.22,4.22,0,0,0,.17,1.08,2.27,2.27,0,0,0,.43.77,1.65,1.65,0,0,0,.65.46,2.08,2.08,0,0,0,.85.16,2.72,2.72,0,0,0,.75-.1,3.54,3.54,0,0,0,.54-.22,3.9,3.9,0,0,0,.38-.22.48.48,0,0,1,.26-.1.25.25,0,0,1,.22.11ZM96.64,80a2.45,2.45,0,0,0-.11-.74,1.72,1.72,0,0,0-.33-.58,1.56,1.56,0,0,0-.53-.38,2,2,0,0,0-2,.35A2.32,2.32,0,0,0,93,80Z"/><path d="M102.94,78.46a.29.29,0,0,1-.25.14.46.46,0,0,1-.22-.07l-.3-.16a2.61,2.61,0,0,0-.43-.16,1.93,1.93,0,0,0-.58-.08,1.78,1.78,0,0,0-.53.08,1.25,1.25,0,0,0-.4.2,1,1,0,0,0-.25.3.82.82,0,0,0-.09.38.6.6,0,0,0,.15.42,1.32,1.32,0,0,0,.39.29A2.65,2.65,0,0,0,101,80l.63.2.63.24a2.41,2.41,0,0,1,.54.32,1.53,1.53,0,0,1,.39.48,1.45,1.45,0,0,1,.15.68,2.14,2.14,0,0,1-.17.84,1.88,1.88,0,0,1-.48.67,2.29,2.29,0,0,1-.78.45,3.15,3.15,0,0,1-1.06.16,3.31,3.31,0,0,1-1.25-.22,3.18,3.18,0,0,1-.95-.58l.27-.44a.4.4,0,0,1,.13-.13.3.3,0,0,1,.18,0,.4.4,0,0,1,.24.09c.09.07.2.13.32.21a2.4,2.4,0,0,0,.45.2,2.1,2.1,0,0,0,.66.09,1.8,1.8,0,0,0,.6-.09,1.32,1.32,0,0,0,.42-.24,1,1,0,0,0,.25-.34,1.16,1.16,0,0,0,.08-.42.68.68,0,0,0-.15-.45,1.06,1.06,0,0,0-.38-.3,3.5,3.5,0,0,0-.55-.23l-.63-.19a5.87,5.87,0,0,1-.63-.24,2,2,0,0,1-.55-.34,1.57,1.57,0,0,1-.39-.49,1.59,1.59,0,0,1-.15-.72,1.81,1.81,0,0,1,.61-1.34,2.51,2.51,0,0,1,.74-.42,3,3,0,0,1,1-.15,3.26,3.26,0,0,1,1.17.2,2.87,2.87,0,0,1,.89.56Z"/><path d="M108.56,78.46a.26.26,0,0,1-.24.14.43.43,0,0,1-.22-.07l-.3-.16a2.61,2.61,0,0,0-.43-.16,2,2,0,0,0-.58-.08,1.74,1.74,0,0,0-.53.08,1.25,1.25,0,0,0-.4.2,1,1,0,0,0-.25.3.82.82,0,0,0-.09.38.6.6,0,0,0,.15.42,1.27,1.27,0,0,0,.38.29,2.74,2.74,0,0,0,.55.22l.63.2.63.24a2.41,2.41,0,0,1,.54.32,1.53,1.53,0,0,1,.39.48,1.45,1.45,0,0,1,.14.68,2.13,2.13,0,0,1-.16.84,1.88,1.88,0,0,1-.48.67,2.29,2.29,0,0,1-.78.45,3.17,3.17,0,0,1-1.07.16,3.26,3.26,0,0,1-1.24-.22,3.18,3.18,0,0,1-1-.58l.27-.44a.51.51,0,0,1,.12-.13.36.36,0,0,1,.19,0,.42.42,0,0,1,.24.09c.09.07.2.13.32.21a2.4,2.4,0,0,0,.45.2,2.1,2.1,0,0,0,.66.09,1.7,1.7,0,0,0,.59-.09,1.37,1.37,0,0,0,.43-.24,1,1,0,0,0,.25-.34,1.16,1.16,0,0,0,.08-.42.68.68,0,0,0-.15-.45,1.06,1.06,0,0,0-.38-.3,4,4,0,0,0-.55-.23l-.63-.19a5.87,5.87,0,0,1-.63-.24,2,2,0,0,1-.55-.34,1.57,1.57,0,0,1-.39-.49,1.59,1.59,0,0,1-.15-.72,1.88,1.88,0,0,1,.16-.73,1.76,1.76,0,0,1,.45-.61,2.51,2.51,0,0,1,.74-.42,3,3,0,0,1,1-.15,3.26,3.26,0,0,1,1.17.2,3,3,0,0,1,.89.56Z"/><path d="M38.15,137.37a5.28,5.28,0,0,1-.33,1.91,4.17,4.17,0,0,1-.94,1.47,4,4,0,0,1-1.45.94,5,5,0,0,1-1.88.34H30.08v-9.32h3.47a5.16,5.16,0,0,1,1.88.34,4,4,0,0,1,1.45.95,4.17,4.17,0,0,1,.94,1.47A5.26,5.26,0,0,1,38.15,137.37Zm-1.29,0a4.55,4.55,0,0,0-.24-1.53A3.06,3.06,0,0,0,36,134.7a2.82,2.82,0,0,0-1-.72,3.71,3.71,0,0,0-1.37-.25H31.34V141h2.21a3.52,3.52,0,0,0,1.37-.25,2.8,2.8,0,0,0,1-.71,3.06,3.06,0,0,0,.66-1.14A4.57,4.57,0,0,0,36.86,137.37Z"/><path d="M44.94,141.11a2.22,2.22,0,0,1-.51.45,2.91,2.91,0,0,1-.64.31,4.12,4.12,0,0,1-.71.19,4.37,4.37,0,0,1-.72.06,3.39,3.39,0,0,1-1.25-.23,2.78,2.78,0,0,1-1-.68,2.92,2.92,0,0,1-.65-1.1,4.39,4.39,0,0,1-.24-1.51,3.55,3.55,0,0,1,.22-1.28,3.05,3.05,0,0,1,.6-1,3,3,0,0,1,1-.69,3.13,3.13,0,0,1,1.29-.25,3,3,0,0,1,1.09.2,2.35,2.35,0,0,1,.87.57,2.63,2.63,0,0,1,.58.92,3.52,3.52,0,0,1,.21,1.25.74.74,0,0,1-.06.37.24.24,0,0,1-.22.09h-4.4a3.71,3.71,0,0,0,.17,1.08,2.24,2.24,0,0,0,.42.78,2,2,0,0,0,.65.46,2.34,2.34,0,0,0,.85.15,2.39,2.39,0,0,0,.75-.1,3.54,3.54,0,0,0,.54-.22,3,3,0,0,0,.38-.22.6.6,0,0,1,.27-.1.27.27,0,0,1,.22.11ZM44,138a2.17,2.17,0,0,0-.12-.74,1.51,1.51,0,0,0-.33-.58,1.47,1.47,0,0,0-.53-.38,2,2,0,0,0-.71-.13,1.74,1.74,0,0,0-1.31.49,2.23,2.23,0,0,0-.6,1.34Z"/><path d="M50.3,136.53a.26.26,0,0,1-.24.14.4.4,0,0,1-.22-.07l-.31-.16a2.47,2.47,0,0,0-.42-.16,2.05,2.05,0,0,0-.59-.08,1.67,1.67,0,0,0-.52.08,1.36,1.36,0,0,0-.4.2,1,1,0,0,0-.26.31.77.77,0,0,0-.08.37.59.59,0,0,0,.14.42,1.54,1.54,0,0,0,.39.3,3.16,3.16,0,0,0,.55.21l.62.2c.22.08.43.15.63.24a2.51,2.51,0,0,1,.55.33,1.43,1.43,0,0,1,.38.47,1.45,1.45,0,0,1,.15.68,2.24,2.24,0,0,1-.16.84,1.79,1.79,0,0,1-.48.67,2.49,2.49,0,0,1-.78.45,3.21,3.21,0,0,1-1.07.16,3.31,3.31,0,0,1-1.25-.22,3.1,3.1,0,0,1-1-.58l.28-.44a.3.3,0,0,1,.12-.13.34.34,0,0,1,.18,0,.45.45,0,0,1,.25.09l.31.2a2.88,2.88,0,0,0,.46.2,2,2,0,0,0,.66.09,1.78,1.78,0,0,0,.59-.09,1.2,1.2,0,0,0,.42-.23.94.94,0,0,0,.25-.35,1,1,0,0,0,.08-.41.74.74,0,0,0-.14-.46,1.19,1.19,0,0,0-.39-.3,2.52,2.52,0,0,0-.55-.22l-.63-.2-.63-.24a2.29,2.29,0,0,1-.55-.33,1.61,1.61,0,0,1-.39-.5,1.74,1.74,0,0,1-.14-.72,1.79,1.79,0,0,1,.15-.72,1.73,1.73,0,0,1,.46-.61,2.09,2.09,0,0,1,.73-.42,2.8,2.8,0,0,1,1-.16,3.34,3.34,0,0,1,1.17.2,2.83,2.83,0,0,1,.89.57Z"/><path d="M58.2,142H57.05v-5.62h-3.4v4a.82.82,0,0,0,.21.62.66.66,0,0,0,.51.2,1,1,0,0,0,.32,0,1.67,1.67,0,0,0,.23-.11l.17-.11a.17.17,0,0,1,.28.06l.34.55A2,2,0,0,1,55,142a2.44,2.44,0,0,1-.88.16,1.56,1.56,0,0,1-1.19-.43,1.74,1.74,0,0,1-.42-1.26v-4h-.8a.25.25,0,0,1-.17-.06.22.22,0,0,1-.07-.19v-.46l1.07-.15.27-2a.24.24,0,0,1,.09-.16.26.26,0,0,1,.18-.06h.58v2.26H58.2Zm.29-8.7a.71.71,0,0,1-.07.32.88.88,0,0,1-.18.25.76.76,0,0,1-.26.18.87.87,0,0,1-.32.06.83.83,0,0,1-.32-.06.64.64,0,0,1-.25-.18.72.72,0,0,1-.18-.25.88.88,0,0,1,0-.64.8.8,0,0,1,.18-.27.94.94,0,0,1,.25-.18.83.83,0,0,1,.32-.06.87.87,0,0,1,.32.06,1.2,1.2,0,0,1,.26.18,1,1,0,0,1,.18.27A.71.71,0,0,1,58.49,133.33Z"/><path d="M61.19,136.4a4.73,4.73,0,0,1,.46-.44,3,3,0,0,1,1.08-.55,2.7,2.7,0,0,1,.65-.07,2.42,2.42,0,0,1,1,.18A1.94,1.94,0,0,1,65,136a2.12,2.12,0,0,1,.41.79,3.22,3.22,0,0,1,.15,1V142H64.42v-4.19a1.75,1.75,0,0,0-.34-1.16,1.24,1.24,0,0,0-1-.42,2,2,0,0,0-1,.25,3,3,0,0,0-.82.67V142H60.1v-6.59h.7a.28.28,0,0,1,.3.24Z"/><path d="M67.19,136.37a3.63,3.63,0,0,1,1.17-.78,3.53,3.53,0,0,1,1.4-.26,2.52,2.52,0,0,1,1,.18,1.89,1.89,0,0,1,.72.51,2,2,0,0,1,.45.78,3.31,3.31,0,0,1,.14,1V142h-.51a.48.48,0,0,1-.26-.06.34.34,0,0,1-.14-.21l-.13-.63a6.47,6.47,0,0,1-.51.43,3.4,3.4,0,0,1-.52.31,2.63,2.63,0,0,1-.58.19,3,3,0,0,1-.69.07A2.17,2.17,0,0,1,68,142a1.61,1.61,0,0,1-.59-.32,1.57,1.57,0,0,1-.39-.54,1.87,1.87,0,0,1-.15-.78,1.39,1.39,0,0,1,.22-.75,1.87,1.87,0,0,1,.69-.64,4.78,4.78,0,0,1,1.26-.46,10.43,10.43,0,0,1,1.89-.2v-.51a1.76,1.76,0,0,0-.33-1.16,1.17,1.17,0,0,0-1-.4,2.08,2.08,0,0,0-.71.11,2.69,2.69,0,0,0-.51.24l-.36.24a.53.53,0,0,1-.3.11.32.32,0,0,1-.2-.06.46.46,0,0,1-.15-.16Zm3.73,2.69a9.67,9.67,0,0,0-1.36.13,4.4,4.4,0,0,0-.91.26,1.29,1.29,0,0,0-.52.39.87.87,0,0,0-.16.49,1,1,0,0,0,.09.45.72.72,0,0,0,.23.31.92.92,0,0,0,.34.18,2,2,0,0,0,.43,0,2.47,2.47,0,0,0,.56-.06,2.15,2.15,0,0,0,.48-.18,2.79,2.79,0,0,0,.42-.28,3.44,3.44,0,0,0,.4-.37Z"/><path d="M79.84,142H78.68v-5.62H75.29v4a.85.85,0,0,0,.2.62.69.69,0,0,0,.52.2,1,1,0,0,0,.32,0l.23-.11.16-.11a.27.27,0,0,1,.13,0A.21.21,0,0,1,77,141l.34.55a2,2,0,0,1-.73.44,2.35,2.35,0,0,1-.87.16,1.59,1.59,0,0,1-1.2-.43,1.74,1.74,0,0,1-.42-1.26v-4h-.79a.24.24,0,0,1-.17-.06.23.23,0,0,1-.08-.19v-.46l1.08-.15.27-2a.24.24,0,0,1,.09-.16.24.24,0,0,1,.18-.06h.58v2.26h4.55Zm.29-8.7a.71.71,0,0,1-.07.32,1.14,1.14,0,0,1-.18.25.8.8,0,0,1-.27.18.83.83,0,0,1-.32.06.81.81,0,0,1-.31-.06.76.76,0,0,1-.26-.18.85.85,0,0,1-.17-.25.77.77,0,0,1,0-.64,1,1,0,0,1,.17-.27,1.2,1.2,0,0,1,.26-.18.81.81,0,0,1,.31-.06.83.83,0,0,1,.32.06.83.83,0,0,1,.45.45A.71.71,0,0,1,80.13,133.33Z"/><path d="M84.52,135.34a3.38,3.38,0,0,1,1.3.24,2.83,2.83,0,0,1,1,.68,3,3,0,0,1,.63,1.07,4.6,4.6,0,0,1,0,2.81,3,3,0,0,1-.63,1.06,2.7,2.7,0,0,1-1,.68,3.38,3.38,0,0,1-1.3.24,3.45,3.45,0,0,1-1.32-.24,2.83,2.83,0,0,1-1-.68,2.94,2.94,0,0,1-.62-1.06,4.6,4.6,0,0,1,0-2.81,2.77,2.77,0,0,1,1.61-1.75A3.45,3.45,0,0,1,84.52,135.34Zm0,5.88a1.67,1.67,0,0,0,1.45-.66,3,3,0,0,0,.48-1.82,3,3,0,0,0-.48-1.83,1.67,1.67,0,0,0-1.45-.66,2.14,2.14,0,0,0-.87.17,1.53,1.53,0,0,0-.61.49,2.16,2.16,0,0,0-.36.78,4.21,4.21,0,0,0-.12,1.05,3,3,0,0,0,.48,1.82A1.73,1.73,0,0,0,84.52,141.22Z"/><path d="M90.2,136.4a4.73,4.73,0,0,1,.46-.44,3,3,0,0,1,1.08-.55,2.7,2.7,0,0,1,.65-.07,2.42,2.42,0,0,1,1,.18A1.82,1.82,0,0,1,94,136a2,2,0,0,1,.42.79,3.22,3.22,0,0,1,.15,1V142H93.43v-4.19a1.75,1.75,0,0,0-.34-1.16,1.26,1.26,0,0,0-1-.42,2,2,0,0,0-1,.25,3.22,3.22,0,0,0-.83.67V142H89.11v-6.59h.7a.28.28,0,0,1,.3.24Z"/><path d="M101.23,142H100v-9.32h1.27Z"/><path d="M106.36,132.71a5,5,0,0,1,1.53.21,2.93,2.93,0,0,1,1.08.58,2.32,2.32,0,0,1,.64.91,3,3,0,0,1,.22,1.19,3.08,3.08,0,0,1-.23,1.19,2.58,2.58,0,0,1-.67.93,3.14,3.14,0,0,1-1.08.61,4.83,4.83,0,0,1-1.49.21h-1.5V142h-1.25v-9.32Zm0,4.83a2.83,2.83,0,0,0,1-.14,2,2,0,0,0,.69-.4,1.74,1.74,0,0,0,.43-.61,2.22,2.22,0,0,0,.14-.79,1.77,1.77,0,0,0-.55-1.39,2.4,2.4,0,0,0-1.66-.5h-1.5v3.83Z"/><path d="M121.52,142h-1a.4.4,0,0,1-.27-.09.49.49,0,0,1-.16-.21l-.87-2.25h-4.18l-.87,2.25a.38.38,0,0,1-.15.21.4.4,0,0,1-.27.09h-1l3.72-9.32h1.27Zm-2.63-3.46-1.46-3.79c0-.11-.09-.24-.14-.39s-.09-.31-.13-.48a8.47,8.47,0,0,1-.28.88l-1.46,3.78Z"/><path d="M127.78,132.45V142h-.69a.29.29,0,0,1-.31-.24l-.11-.8a3.55,3.55,0,0,1-1,.82,2.42,2.42,0,0,1-1.25.31,2.28,2.28,0,0,1-1-.22,2.11,2.11,0,0,1-.79-.64,3,3,0,0,1-.5-1,5.27,5.27,0,0,1-.18-1.45,4.56,4.56,0,0,1,.2-1.36,3.51,3.51,0,0,1,.56-1.09,2.72,2.72,0,0,1,.89-.72,2.57,2.57,0,0,1,1.19-.26,2.36,2.36,0,0,1,1,.2,2.53,2.53,0,0,1,.77.57v-3.65ZM126.62,137a1.88,1.88,0,0,0-.7-.61,2.08,2.08,0,0,0-.85-.17,1.66,1.66,0,0,0-1.41.66,3.11,3.11,0,0,0-.49,1.87,4.91,4.91,0,0,0,.11,1.1,2,2,0,0,0,.33.75,1.22,1.22,0,0,0,.52.44,1.8,1.8,0,0,0,.71.13,1.84,1.84,0,0,0,1-.26,2.8,2.8,0,0,0,.78-.73Z"/><path d="M135.06,132.45V142h-.69a.29.29,0,0,1-.31-.24L134,141a3.55,3.55,0,0,1-1,.82,2.42,2.42,0,0,1-1.25.31,2.31,2.31,0,0,1-1-.22,2.11,2.11,0,0,1-.79-.64,3,3,0,0,1-.5-1,5.27,5.27,0,0,1-.18-1.45,4.56,4.56,0,0,1,.2-1.36,3.51,3.51,0,0,1,.56-1.09,2.72,2.72,0,0,1,.89-.72,2.61,2.61,0,0,1,1.2-.26,2.34,2.34,0,0,1,1,.2,2.53,2.53,0,0,1,.77.57v-3.65ZM133.9,137a1.88,1.88,0,0,0-.7-.61,2.07,2.07,0,0,0-.84-.17,1.66,1.66,0,0,0-1.42.66,3,3,0,0,0-.49,1.87,4.91,4.91,0,0,0,.11,1.1,1.85,1.85,0,0,0,.33.75,1.22,1.22,0,0,0,.52.44,1.8,1.8,0,0,0,.71.13,1.82,1.82,0,0,0,1-.26,2.8,2.8,0,0,0,.78-.73Z"/><path d="M138,136.76a2.87,2.87,0,0,1,.77-1,1.63,1.63,0,0,1,1.11-.38,1.75,1.75,0,0,1,.4,0,1,1,0,0,1,.34.15l-.08.86a.19.19,0,0,1-.2.16,1.16,1.16,0,0,1-.27,0,2.23,2.23,0,0,0-.39,0,1.4,1.4,0,0,0-.56.1,1.21,1.21,0,0,0-.43.27,1.58,1.58,0,0,0-.35.44,4.24,4.24,0,0,0-.28.6V142h-1.16v-6.59h.66a.33.33,0,0,1,.26.08.41.41,0,0,1,.1.24Z"/><path d="M146.7,141.11a2.22,2.22,0,0,1-.51.45,3.15,3.15,0,0,1-.64.31,4.09,4.09,0,0,1-1.43.25,3.44,3.44,0,0,1-1.26-.23,2.83,2.83,0,0,1-1-.68,3.08,3.08,0,0,1-.66-1.1,4.65,4.65,0,0,1-.23-1.51,3.78,3.78,0,0,1,.21-1.28,2.92,2.92,0,0,1,.61-1,2.85,2.85,0,0,1,1-.69,3.11,3.11,0,0,1,1.28-.25,3,3,0,0,1,1.1.2,2.35,2.35,0,0,1,.87.57,2.63,2.63,0,0,1,.58.92,3.77,3.77,0,0,1,.2,1.25.93.93,0,0,1-.05.37.25.25,0,0,1-.22.09h-4.41a3.68,3.68,0,0,0,.18,1.08,2.24,2.24,0,0,0,.42.78,1.88,1.88,0,0,0,.65.46,2.3,2.3,0,0,0,.85.15,2.39,2.39,0,0,0,.75-.1,3.54,3.54,0,0,0,.54-.22,3.9,3.9,0,0,0,.38-.22.57.57,0,0,1,.26-.1.25.25,0,0,1,.22.11Zm-.94-3.09a2.17,2.17,0,0,0-.11-.74,1.83,1.83,0,0,0-.33-.58,1.56,1.56,0,0,0-.53-.38,2,2,0,0,0-.71-.13,1.74,1.74,0,0,0-1.31.49,2.24,2.24,0,0,0-.61,1.34Z"/><path d="M152.06,136.53a.28.28,0,0,1-.24.14.4.4,0,0,1-.22-.07l-.31-.16a2.85,2.85,0,0,0-.42-.16,2.05,2.05,0,0,0-.59-.08,1.67,1.67,0,0,0-.52.08,1.36,1.36,0,0,0-.4.2,1,1,0,0,0-.26.31.77.77,0,0,0-.08.37.59.59,0,0,0,.14.42,1.54,1.54,0,0,0,.39.3,3.38,3.38,0,0,0,.54.21l.63.2.63.24a2.44,2.44,0,0,1,.54.33,1.61,1.61,0,0,1,.39.47,1.45,1.45,0,0,1,.15.68,2.24,2.24,0,0,1-.16.84,1.71,1.71,0,0,1-.49.67,2.29,2.29,0,0,1-.78.45,3.15,3.15,0,0,1-1.06.16,3.31,3.31,0,0,1-1.25-.22,3.1,3.1,0,0,1-.95-.58l.27-.44a.4.4,0,0,1,.13-.13.34.34,0,0,1,.18,0,.45.45,0,0,1,.25.09l.31.2a3.18,3.18,0,0,0,.45.2,2.13,2.13,0,0,0,.67.09,1.78,1.78,0,0,0,.59-.09A1.2,1.2,0,0,0,151,141a.94.94,0,0,0,.25-.35,1.15,1.15,0,0,0,.08-.41.69.69,0,0,0-.15-.46,1.06,1.06,0,0,0-.38-.3,2.74,2.74,0,0,0-.55-.22l-.63-.2a5.87,5.87,0,0,1-.63-.24,2.29,2.29,0,0,1-.55-.33,1.47,1.47,0,0,1-.53-1.22,1.79,1.79,0,0,1,.15-.72,1.73,1.73,0,0,1,.46-.61,2.09,2.09,0,0,1,.73-.42,2.8,2.8,0,0,1,1-.16,3.24,3.24,0,0,1,1.16.2,2.88,2.88,0,0,1,.9.57Z"/><path d="M157.69,136.53a.29.29,0,0,1-.25.14.46.46,0,0,1-.22-.07l-.3-.16a2.85,2.85,0,0,0-.42-.16,2.05,2.05,0,0,0-.59-.08,1.78,1.78,0,0,0-.53.08,1.66,1.66,0,0,0-.4.2.93.93,0,0,0-.25.31.78.78,0,0,0-.09.37.6.6,0,0,0,.15.42,1.54,1.54,0,0,0,.39.3,3.38,3.38,0,0,0,.54.21l.63.2c.21.08.42.15.63.24a2.44,2.44,0,0,1,.54.33,1.61,1.61,0,0,1,.39.47,1.45,1.45,0,0,1,.15.68,2.07,2.07,0,0,1-.17.84,1.79,1.79,0,0,1-.48.67,2.29,2.29,0,0,1-.78.45,3.15,3.15,0,0,1-1.06.16,3.31,3.31,0,0,1-1.25-.22,3,3,0,0,1-.95-.58l.27-.44a.4.4,0,0,1,.13-.13.3.3,0,0,1,.18,0,.4.4,0,0,1,.24.09l.32.2a2.4,2.4,0,0,0,.45.2,2.1,2.1,0,0,0,.66.09,1.8,1.8,0,0,0,.6-.09,1.3,1.3,0,0,0,.42-.23.94.94,0,0,0,.25-.35,1.15,1.15,0,0,0,.08-.41.69.69,0,0,0-.15-.46,1.06,1.06,0,0,0-.38-.3,2.74,2.74,0,0,0-.55-.22l-.63-.2a5.87,5.87,0,0,1-.63-.24,2.29,2.29,0,0,1-.55-.33,1.51,1.51,0,0,1-.54-1.22,1.8,1.8,0,0,1,.16-.72,1.62,1.62,0,0,1,.46-.61,2.09,2.09,0,0,1,.73-.42,2.78,2.78,0,0,1,1-.16,3.26,3.26,0,0,1,1.17.2,2.72,2.72,0,0,1,.89.57Z"/><path class="cls-5" d="M183.83,99.43h-1.69a.44.44,0,0,1-.44-.44A1.33,1.33,0,1,0,179,99a.44.44,0,0,1-.44.44h-1.82a.44.44,0,0,1-.43-.44,1.34,1.34,0,0,0-2.67,0,.44.44,0,0,1-.43.44h-1.82A.44.44,0,0,1,171,99a1.33,1.33,0,0,0-2.66,0,.44.44,0,0,1-.44.44h-1.82a.44.44,0,0,1-.43-.44A1.34,1.34,0,0,0,163,99a.44.44,0,0,1-.43.44h-1.82a.44.44,0,0,1-.44-.44,1.33,1.33,0,0,0-2.66,0,.44.44,0,0,1-.44.44h-2.05a.44.44,0,0,1-.44-.44V97.12a.44.44,0,0,1,.44-.44,1.33,1.33,0,1,0,0-2.66.44.44,0,0,1-.44-.44V91.76a.44.44,0,0,1,.44-.43,1.34,1.34,0,0,0,0-2.67.44.44,0,0,1-.44-.43V86.41a.44.44,0,0,1,.44-.44,1.33,1.33,0,1,0,0-2.66.44.44,0,0,1-.44-.44V81.05a.44.44,0,0,1,.44-.43,1.34,1.34,0,0,0,0-2.67.44.44,0,0,1-.44-.43V75.7a.44.44,0,0,1,.44-.44,1.33,1.33,0,0,0,0-2.66.44.44,0,0,1-.44-.44V70.29a.44.44,0,0,1,.44-.44h2.05a.44.44,0,0,1,.44.44,1.33,1.33,0,0,0,2.66,0,.44.44,0,0,1,.44-.44h1.82a.44.44,0,0,1,.43.44,1.34,1.34,0,0,0,2.67,0,.44.44,0,0,1,.43-.44h1.82a.44.44,0,0,1,.44.44,1.33,1.33,0,0,0,2.66,0,.44.44,0,0,1,.44-.44h1.82a.44.44,0,0,1,.43.44,1.34,1.34,0,0,0,2.67,0,.44.44,0,0,1,.43-.44h1.82a.44.44,0,0,1,.44.44,1.33,1.33,0,1,0,2.66,0,.44.44,0,0,1,.44-.44h1.69a.44.44,0,0,1,.44.44v1.87a.44.44,0,0,1-.44.44,1.33,1.33,0,0,0,0,2.66.44.44,0,0,1,.44.44v1.82a.44.44,0,0,1-.44.43,1.34,1.34,0,0,0,0,2.67.44.44,0,0,1,.44.43v1.82a.44.44,0,0,1-.44.44,1.33,1.33,0,0,0,0,2.66.44.44,0,0,1,.44.44v1.82a.44.44,0,0,1-.44.43,1.34,1.34,0,0,0,0,2.67.44.44,0,0,1,.44.43v1.82a.44.44,0,0,1-.44.44,1.33,1.33,0,1,0,0,2.66.44.44,0,0,1,.44.44V99A.44.44,0,0,1,183.83,99.43Zm-1.3-.87h.87v-1a2.2,2.2,0,0,1,0-4.32v-1a2.2,2.2,0,0,1,0-4.31v-1a2.2,2.2,0,0,1,0-4.32v-1a2.2,2.2,0,0,1,0-4.31v-1a2.2,2.2,0,0,1,0-4.32v-1h-.87a2.2,2.2,0,0,1-4.32,0h-1a2.2,2.2,0,0,1-4.31,0h-1a2.2,2.2,0,0,1-4.32,0h-1a2.2,2.2,0,0,1-4.31,0h-1a2.2,2.2,0,0,1-4.32,0h-1.23v1a2.2,2.2,0,0,1,0,4.32v1a2.2,2.2,0,0,1,0,4.31v1a2.2,2.2,0,0,1,0,4.32v1a2.2,2.2,0,0,1,0,4.31v1a2.2,2.2,0,0,1,0,4.32v1h1.23a2.2,2.2,0,0,1,4.32,0h1a2.2,2.2,0,0,1,4.31,0h1a2.2,2.2,0,0,1,4.32,0h1a2.2,2.2,0,0,1,4.31,0h1a2.2,2.2,0,0,1,4.32,0Zm-2.34-2.77H158.77a.44.44,0,0,1-.43-.44V73.93a.43.43,0,0,1,.43-.43h21.42a.44.44,0,0,1,.44.43V95.35A.44.44,0,0,1,180.19,95.79Zm-21-.87h20.55V74.37H159.21Z"/><path class="cls-5" d="M165.25,91.3h-1.79V78.05h1.79Z"/><path class="cls-5" d="M172.55,78.05a7.5,7.5,0,0,1,2.19.29,4.28,4.28,0,0,1,1.54.83,3.45,3.45,0,0,1,.91,1.29,4.6,4.6,0,0,1,.3,1.7,4.42,4.42,0,0,1-.32,1.69,3.78,3.78,0,0,1-.95,1.32,4.47,4.47,0,0,1-1.55.87,6.81,6.81,0,0,1-2.12.31h-2.13v5h-1.78V78.05Zm0,6.87a4.37,4.37,0,0,0,1.36-.2,3,3,0,0,0,1-.57,2.55,2.55,0,0,0,.6-.88,2.85,2.85,0,0,0,.2-1.11,2.53,2.53,0,0,0-.78-2,3.39,3.39,0,0,0-2.37-.72h-2.13v5.46Z"/></svg>