<svg id="Layer_1" data-name="Layer 1" xmlns="http://www.w3.org/2000/svg" viewBox="0 0 1480 886"><defs><style>.cls-1{fill:#404242;}.cls-2{fill:#4698cf;}.cls-3{opacity:0.8;}.cls-4{opacity:0.4;}.cls-5{opacity:0.2;}.cls-6{opacity:0.1;}</style></defs><path class="cls-1" d="M349.09,363.2a14.84,14.84,0,1,0-23.43,12.1,1.42,1.42,0,1,1-1.64,2.31,17.67,17.67,0,1,1,19.68.52,1.42,1.42,0,0,1-1.52-2.39A14.77,14.77,0,0,0,349.09,363.2Zm-29.67,22.43a1.41,1.41,0,0,0,1.56-2.36,24.06,24.06,0,1,1,26.81-.19,1.42,1.42,0,0,0,1.6,2.35,26.9,26.9,0,1,0-30,.2Zm143.17,17.14V454a6.38,6.38,0,0,1-6.37,6.38H302.62a6.39,6.39,0,0,1-6.38-6.38V402.77a6.4,6.4,0,0,1,6.38-6.38h28.15v-24a3.55,3.55,0,0,1,7.09,0v24H456.22A6.39,6.39,0,0,1,462.59,402.77Zm-7.08.71H303.33v49.79H455.51Zm-41.15,30.7a5.15,5.15,0,1,0-5.15-5.15A5.14,5.14,0,0,0,414.36,434.18Zm16.49,0A5.15,5.15,0,1,0,425.7,429,5.15,5.15,0,0,0,430.85,434.18Zm-49.46,0a5.15,5.15,0,1,0-5.15-5.15A5.15,5.15,0,0,0,381.39,434.18Zm16.49,0a5.15,5.15,0,1,0-5.15-5.15A5.14,5.14,0,0,0,397.88,434.18Zm37,32.18H324a3.54,3.54,0,1,0,0,7.08H434.88a3.54,3.54,0,1,0,0-7.08Z"/><path class="cls-2" d="M185.68,471V386.66A6.67,6.67,0,0,0,179,380H51.88a6.67,6.67,0,0,0-6.66,6.66V471H36.33c.79,6,5,10.66,10,10.66H183.9c5,0,9.19-4.63,10-10.66ZM52.84,387.61H178.07V471H52.84Z"/><path class="cls-2" d="M1427,465.54V381.18a6.67,6.67,0,0,0-6.66-6.66H1293.19a6.67,6.67,0,0,0-6.66,6.66v84.36h-8.89c.79,6,5,10.66,10,10.66h137.59c5,0,9.19-4.64,10-10.66Zm-132.85-83.41h125.24v83.41H1294.14Z"/><path class="cls-1" d="M604.29,234.47a9.18,9.18,0,1,1-9.17-9.17A9.17,9.17,0,0,1,604.29,234.47Zm-9.17-49.55a9.18,9.18,0,1,0-9.18-9.18A9.17,9.17,0,0,0,595.12,184.92ZM701.27,225.3a9.18,9.18,0,1,0,9.18,9.17A9.17,9.17,0,0,0,701.27,225.3Zm0-40.38a9.18,9.18,0,1,0-9.18-9.18A9.18,9.18,0,0,0,701.27,184.92Zm-43.75,18.66a9.18,9.18,0,1,0-9.17,9.17A9.18,9.18,0,0,0,657.52,203.58Zm-9.17-47.73a9.18,9.18,0,1,0-9.18-9.17A9.17,9.17,0,0,0,648.35,155.85ZM651,192.18V158.07a11.64,11.64,0,0,1-2.65.31c-.35,0-.69,0-1,0v33.59c.33,0,.67,0,1,0A11.64,11.64,0,0,1,651,192.18Zm-44.83,38.47,15.42-8.56,19.52,32.25a11.87,11.87,0,0,1,3.21-1.79L624.8,220.31l15.25-8.47a11.72,11.72,0,0,1-2.15-3l-15,8.33-7.6-12.55,7.27-12.08,14.48,8a11.59,11.59,0,0,1,1.49-3.37l-14.08-7.81,19.23-32a11.48,11.48,0,0,1-3.09-2l-19.35,32.16-15-8.31a11.78,11.78,0,0,1-1.66,3.28l14.74,8.18-6.21,10.32L603,184.34a11.77,11.77,0,0,1-3.06,2l11,18.24-11.44,19a11.63,11.63,0,0,1,3.13,1.91l10.46-17.39L619.69,219l-15.25,8.46A11.6,11.6,0,0,1,606.17,230.65Zm84.11-50.9-14.74,8.19-19.6-32.37a11.36,11.36,0,0,1-3.12,1.92l19.5,32.23-14,7.77a11.59,11.59,0,0,1,1.41,3.42l14.49-8,7.3,12.07L674.26,217l-15.32-8.5a11.38,11.38,0,0,1-2.06,3l15.49,8.6L652.8,252.71a11.79,11.79,0,0,1,3.13,1.91L675.58,222l14.81,8.23a11.45,11.45,0,0,1,1.86-3.17l-14.78-8.2,6.21-10.33,10.23,16.9a11.41,11.41,0,0,1,3.18-1.83l-11.27-18.62,11-18.35a11.79,11.79,0,0,1-3.13-1.91l-10.05,16.71-6.23-10.3L692.07,183A11.6,11.6,0,0,1,690.28,179.75Zm1.78-11.23-32.7-17.92a11.32,11.32,0,0,1-1.76,3.22l32.68,17.91A11.84,11.84,0,0,1,692.06,168.52Zm-44.73,46.71v36.65c.33,0,.67,0,1,0a11.64,11.64,0,0,1,2.65.31V215a11.64,11.64,0,0,1-2.65.31C648,215.28,647.66,215.26,647.33,215.23Zm-8.19-61.33a11.84,11.84,0,0,1-1.78-3.21l-32.89,18a11.77,11.77,0,0,1,1.72,3.25Zm18.34,102.32a11.81,11.81,0,0,1,1.81,3.19l32.65-17.89a11.35,11.35,0,0,1-1.73-3.24Zm41.55-69V223a11.73,11.73,0,0,1,2.24-.22,11.32,11.32,0,0,1,1.43.09V187.35a11.32,11.32,0,0,1-1.43.09A11,11,0,0,1,699,187.22Zm-104.93.17v35.43c.33,0,.67,0,1,0a11.58,11.58,0,0,1,2.65.31v-36a11.58,11.58,0,0,1-2.65.31C594.77,187.44,594.43,187.42,594.1,187.39ZM606.27,238a11.72,11.72,0,0,1-1.66,3.27l32.83,18a11.56,11.56,0,0,1,1.85-3.17Zm42.08,16.33a9.18,9.18,0,1,0,9.17,9.17A9.18,9.18,0,0,0,648.35,254.36Z"/><path class="cls-1" d="M616.34,689.23a9.18,9.18,0,1,1-9.18-9.18A9.18,9.18,0,0,1,616.34,689.23Zm-9.18-49.56A9.18,9.18,0,1,0,598,630.5,9.17,9.17,0,0,0,607.16,639.67Zm106.15,40.38a9.18,9.18,0,1,0,9.18,9.18A9.18,9.18,0,0,0,713.31,680.05Zm0-40.38a9.18,9.18,0,1,0-9.17-9.17A9.17,9.17,0,0,0,713.31,639.67Zm-43.74,18.66a9.18,9.18,0,1,0-9.18,9.18A9.18,9.18,0,0,0,669.57,658.33Zm-9.18-47.72a9.18,9.18,0,1,0-9.18-9.17A9.18,9.18,0,0,0,660.39,610.61ZM663,646.94V612.83a11.58,11.58,0,0,1-2.65.31c-.34,0-.68,0-1,0v33.59c.34,0,.68,0,1,0A11.58,11.58,0,0,1,663,646.94Zm-44.82,38.47,15.41-8.56,19.53,32.25a12,12,0,0,1,3.2-1.79l-19.52-32.25,15.26-8.46a11.75,11.75,0,0,1-2.16-3l-15,8.33-7.59-12.55,7.27-12.09,14.47,8a11.5,11.5,0,0,1,1.5-3.37l-14.08-7.81,19.22-32a11.8,11.8,0,0,1-3.09-2L633.3,642.35l-15-8.31a11.52,11.52,0,0,1-1.66,3.28l14.74,8.18-6.2,10.32L615.08,639.1a11.77,11.77,0,0,1-3.06,2l11,18.24-11.45,19a11.84,11.84,0,0,1,3.14,1.91l10.46-17.39,6.52,10.77-15.25,8.47A11.63,11.63,0,0,1,618.22,685.41Zm84.11-50.9-14.75,8.19L668,610.33a11.66,11.66,0,0,1-3.13,1.92l19.51,32.23-14,7.77a11.57,11.57,0,0,1,1.4,3.42l14.49-8,7.31,12.07-7.28,12.09L671,663.28a11.65,11.65,0,0,1-2.07,3.05l15.49,8.6-19.57,32.54a11.63,11.63,0,0,1,3.13,1.91l19.65-32.67,14.81,8.23a11.7,11.7,0,0,1,1.86-3.17l-14.77-8.2,6.21-10.33L706,680.14a11.56,11.56,0,0,1,3.18-1.83l-11.27-18.62,11-18.35a11.69,11.69,0,0,1-3.14-1.91l-10,16.71-6.24-10.3,14.63-8.12A11.57,11.57,0,0,1,702.33,634.51Zm1.78-11.23-32.7-17.92a11.57,11.57,0,0,1-1.76,3.22l32.68,17.91A11.57,11.57,0,0,1,704.11,623.28ZM659.37,670v36.65c.34,0,.68,0,1,0a11.58,11.58,0,0,1,2.65.31V669.73a11.58,11.58,0,0,1-2.65.31C660.05,670,659.71,670,659.37,670Zm-8.18-61.33a11.57,11.57,0,0,1-1.78-3.21l-32.9,18a11.51,11.51,0,0,1,1.72,3.25ZM669.52,711a11.44,11.44,0,0,1,1.82,3.19L704,696.28a12,12,0,0,1-1.73-3.24Zm41.55-69v35.76a11.9,11.9,0,0,1,2.24-.22,11.19,11.19,0,0,1,1.43.1V642.11a13.39,13.39,0,0,1-1.43.09A11.9,11.9,0,0,1,711.07,642Zm-104.93.17v35.43c.34,0,.68-.06,1-.06a11.51,11.51,0,0,1,2.65.32v-36a11.51,11.51,0,0,1-2.65.31C606.82,642.2,606.48,642.18,606.14,642.15Zm12.18,50.64a11.86,11.86,0,0,1-1.66,3.27l32.83,18a11.79,11.79,0,0,1,1.84-3.17Zm42.07,16.33a9.18,9.18,0,1,0,9.18,9.17A9.17,9.17,0,0,0,660.39,709.12Z"/><path class="cls-1" d="M1079.14,689.23a9.18,9.18,0,1,1-9.17-9.18A9.17,9.17,0,0,1,1079.14,689.23ZM1070,639.67a9.18,9.18,0,1,0-9.18-9.17A9.16,9.16,0,0,0,1070,639.67Zm106.15,40.38a9.18,9.18,0,1,0,9.17,9.18A9.18,9.18,0,0,0,1176.12,680.05Zm0-40.38a9.18,9.18,0,1,0-9.18-9.17A9.16,9.16,0,0,0,1176.12,639.67Zm-43.75,18.66a9.18,9.18,0,1,0-9.18,9.18A9.18,9.18,0,0,0,1132.37,658.33Zm-9.18-47.72a9.18,9.18,0,1,0-9.17-9.17A9.18,9.18,0,0,0,1123.19,610.61Zm2.66,36.33V612.83a11.66,11.66,0,0,1-2.66.31c-.34,0-.68,0-1,0v33.59c.33,0,.67,0,1,0A11.66,11.66,0,0,1,1125.85,646.94ZM1081,685.41l15.42-8.56L1116,709.1a11.87,11.87,0,0,1,3.21-1.79l-19.52-32.25,15.25-8.46a11.72,11.72,0,0,1-2.15-3l-15,8.33-7.6-12.55,7.27-12.09,14.47,8a11.77,11.77,0,0,1,1.5-3.37l-14.08-7.81,19.23-32a11.69,11.69,0,0,1-3.1-2l-19.34,32.16-15-8.31a11.49,11.49,0,0,1-1.65,3.28l14.74,8.18L1088,655.82l-10.12-16.72a11.77,11.77,0,0,1-3.06,2l11,18.24-11.44,19a11.79,11.79,0,0,1,3.13,1.91L1088,662.93l6.52,10.77-15.24,8.47A11.6,11.6,0,0,1,1081,685.41Zm84.11-50.9-14.75,8.19-19.59-32.37a11.76,11.76,0,0,1-3.12,1.92l19.5,32.23-14,7.77a11.31,11.31,0,0,1,1.4,3.42l14.5-8,7.3,12.07-7.27,12.09-15.32-8.5a11.38,11.38,0,0,1-2.06,3.05l15.48,8.6-19.56,32.54a11.79,11.79,0,0,1,3.13,1.91l19.65-32.67,14.81,8.23a11.45,11.45,0,0,1,1.86-3.17l-14.78-8.2,6.21-10.33,10.22,16.9a11.61,11.61,0,0,1,3.19-1.83l-11.27-18.62,11-18.35a11.84,11.84,0,0,1-3.14-1.91l-10,16.71-6.23-10.3,14.63-8.12A11.6,11.6,0,0,1,1165.13,634.51Zm1.78-11.23-32.7-17.92a11.57,11.57,0,0,1-1.76,3.22l32.68,17.91A11.84,11.84,0,0,1,1166.91,623.28ZM1122.18,670v36.65c.33,0,.67,0,1,0a11.66,11.66,0,0,1,2.66.31V669.73a11.66,11.66,0,0,1-2.66.31C1122.85,670,1122.51,670,1122.18,670ZM1114,608.66a11.84,11.84,0,0,1-1.78-3.21l-32.89,18a12,12,0,0,1,1.72,3.25ZM1132.32,711a11.44,11.44,0,0,1,1.82,3.19l32.65-17.89a11.48,11.48,0,0,1-1.73-3.24Zm41.55-69v35.76a11.92,11.92,0,0,1,2.25-.22,11.32,11.32,0,0,1,1.43.1V642.11a13.55,13.55,0,0,1-1.43.09A11.92,11.92,0,0,1,1173.87,642Zm-104.92.17v35.43c.33,0,.67-.06,1-.06a11.65,11.65,0,0,1,2.65.32v-36a11.64,11.64,0,0,1-2.65.31C1069.62,642.2,1069.28,642.18,1069,642.15Zm12.17,50.64a11.86,11.86,0,0,1-1.66,3.27l32.83,18a11.56,11.56,0,0,1,1.85-3.17Zm42.07,16.33a9.18,9.18,0,1,0,9.18,9.17A9.17,9.17,0,0,0,1123.19,709.12Z"/><path class="cls-1" d="M844.15,234.47A9.18,9.18,0,1,1,835,225.3,9.18,9.18,0,0,1,844.15,234.47ZM835,184.92a9.18,9.18,0,1,0-9.18-9.18A9.18,9.18,0,0,0,835,184.92ZM941.12,225.3a9.18,9.18,0,1,0,9.18,9.17A9.16,9.16,0,0,0,941.12,225.3Zm0-40.38a9.18,9.18,0,1,0-9.17-9.18A9.18,9.18,0,0,0,941.12,184.92Zm-43.74,18.66a9.18,9.18,0,1,0-9.18,9.17A9.18,9.18,0,0,0,897.38,203.58Zm-9.18-47.73a9.18,9.18,0,1,0-9.18-9.17A9.17,9.17,0,0,0,888.2,155.85Zm2.65,36.33V158.07a11.58,11.58,0,0,1-2.65.31c-.34,0-.68,0-1,0v33.59c.34,0,.68,0,1,0A11.58,11.58,0,0,1,890.85,192.18ZM846,230.65l15.41-8.56L881,254.34a11.87,11.87,0,0,1,3.21-1.79l-19.52-32.24,15.26-8.47a11.75,11.75,0,0,1-2.16-3l-15,8.33-7.6-12.55,7.27-12.08,14.48,8a11.86,11.86,0,0,1,1.49-3.37l-14.07-7.81,19.22-32a11.64,11.64,0,0,1-3.09-2l-19.34,32.16-15-8.31a11.52,11.52,0,0,1-1.66,3.28l14.74,8.18L853,201.06l-10.12-16.72a11.77,11.77,0,0,1-3.06,2l11,18.24-11.45,19a11.63,11.63,0,0,1,3.13,1.91L853,208.17,859.54,219l-15.25,8.46A11.63,11.63,0,0,1,846,230.65Zm84.11-50.9-14.75,8.19L895.8,155.57a11.41,11.41,0,0,1-3.13,1.92l19.51,32.23-14,7.77a11.85,11.85,0,0,1,1.4,3.42l14.49-8,7.31,12.07L914.11,217l-15.31-8.5a11.65,11.65,0,0,1-2.07,3l15.49,8.6-19.57,32.54a11.63,11.63,0,0,1,3.13,1.91L915.43,222l14.81,8.23A11.7,11.7,0,0,1,932.1,227l-14.78-8.2,6.21-10.33,10.23,16.9a11.56,11.56,0,0,1,3.18-1.83l-11.27-18.62,11-18.35a11.69,11.69,0,0,1-3.14-1.91l-10.05,16.71-6.23-10.3L931.92,183A11.57,11.57,0,0,1,930.14,179.75Zm1.78-11.23-32.7-17.92a11.84,11.84,0,0,1-1.76,3.22l32.68,17.91A11.32,11.32,0,0,1,931.92,168.52Zm-44.74,46.71v36.65c.34,0,.68,0,1,0a11.58,11.58,0,0,1,2.65.31V215a11.58,11.58,0,0,1-2.65.31C887.86,215.28,887.52,215.26,887.18,215.23ZM879,153.9a11.32,11.32,0,0,1-1.78-3.21l-32.9,18A11.51,11.51,0,0,1,846,172Zm18.33,102.32a11.55,11.55,0,0,1,1.81,3.19l32.65-17.89a11.6,11.6,0,0,1-1.73-3.24Zm41.55-69V223a11.82,11.82,0,0,1,2.24-.22,11.2,11.2,0,0,1,1.43.09V187.35a11.2,11.2,0,0,1-1.43.09A11.05,11.05,0,0,1,938.88,187.22ZM834,187.39v35.43c.34,0,.68,0,1,0a11.51,11.51,0,0,1,2.65.31v-36a11.51,11.51,0,0,1-2.65.31C834.63,187.44,834.29,187.42,834,187.39ZM846.12,238a11.21,11.21,0,0,1-1.66,3.27l32.84,18a11.79,11.79,0,0,1,1.84-3.17Zm42.08,16.33a9.18,9.18,0,1,0,9.18,9.17A9.18,9.18,0,0,0,888.2,254.36Z"/><path class="cls-1" d="M1076.05,234.47a9.18,9.18,0,1,1-9.17-9.17A9.17,9.17,0,0,1,1076.05,234.47Zm-9.17-49.55a9.18,9.18,0,1,0-9.18-9.18A9.17,9.17,0,0,0,1066.88,184.92ZM1173,225.3a9.18,9.18,0,1,0,9.18,9.17A9.17,9.17,0,0,0,1173,225.3Zm0-40.38a9.18,9.18,0,1,0-9.18-9.18A9.18,9.18,0,0,0,1173,184.92Zm-43.75,18.66a9.18,9.18,0,1,0-9.17,9.17A9.18,9.18,0,0,0,1129.28,203.58Zm-9.17-47.73a9.18,9.18,0,1,0-9.18-9.17A9.17,9.17,0,0,0,1120.11,155.85Zm2.65,36.33V158.07a11.64,11.64,0,0,1-2.65.31c-.35,0-.69,0-1,0v33.59c.33,0,.67,0,1,0A11.64,11.64,0,0,1,1122.76,192.18Zm-44.83,38.47,15.42-8.56,19.52,32.25a11.87,11.87,0,0,1,3.21-1.79l-19.52-32.24,15.25-8.47a11.72,11.72,0,0,1-2.15-3l-15,8.33-7.6-12.55,7.27-12.08,14.48,8a11.59,11.59,0,0,1,1.49-3.37l-14.08-7.81,19.23-32a11.69,11.69,0,0,1-3.1-2L1093,187.59l-15-8.31a11.78,11.78,0,0,1-1.66,3.28l14.74,8.18-6.21,10.32-10.12-16.72a11.77,11.77,0,0,1-3.06,2l11,18.24-11.44,19a11.63,11.63,0,0,1,3.13,1.91l10.46-17.39,6.53,10.78-15.25,8.46A11.6,11.6,0,0,1,1077.93,230.65Zm84.11-50.9-14.75,8.19-19.59-32.37a11.36,11.36,0,0,1-3.12,1.92l19.5,32.23-14,7.77a11.59,11.59,0,0,1,1.41,3.42l14.49-8,7.3,12.07L1146,217l-15.32-8.5a11.38,11.38,0,0,1-2.06,3l15.49,8.6-19.57,32.54a11.79,11.79,0,0,1,3.13,1.91L1147.34,222l14.81,8.23A11.45,11.45,0,0,1,1164,227l-14.78-8.2,6.21-10.33,10.23,16.9a11.41,11.41,0,0,1,3.18-1.83l-11.27-18.62,11-18.35a11.79,11.79,0,0,1-3.13-1.91l-10,16.71-6.23-10.3,14.63-8.12A11.6,11.6,0,0,1,1162,179.75Zm1.78-11.23-32.7-17.92a11.32,11.32,0,0,1-1.76,3.22L1162,171.73A11.84,11.84,0,0,1,1163.82,168.52Zm-44.73,46.71v36.65c.33,0,.67,0,1,0a11.64,11.64,0,0,1,2.65.31V215a11.64,11.64,0,0,1-2.65.31C1119.76,215.28,1119.42,215.26,1119.09,215.23Zm-8.19-61.33a11.84,11.84,0,0,1-1.78-3.21l-32.89,18A11.77,11.77,0,0,1,1078,172Zm18.34,102.32a11.81,11.81,0,0,1,1.81,3.19l32.65-17.89a11.35,11.35,0,0,1-1.73-3.24Zm41.54-69V223a11.92,11.92,0,0,1,2.25-.22,11.32,11.32,0,0,1,1.43.09V187.35a11.32,11.32,0,0,1-1.43.09A11.15,11.15,0,0,1,1170.78,187.22Zm-104.92.17v35.43c.33,0,.67,0,1,0a11.58,11.58,0,0,1,2.65.31v-36a11.58,11.58,0,0,1-2.65.31C1066.53,187.44,1066.19,187.42,1065.86,187.39ZM1078,238a11.72,11.72,0,0,1-1.66,3.27l32.83,18a11.56,11.56,0,0,1,1.85-3.17Zm42.08,16.33a9.18,9.18,0,1,0,9.17,9.17A9.18,9.18,0,0,0,1120.11,254.36Z"/><path class="cls-1" d="M854.57,744.1a1.52,1.52,0,0,1-.26-3l13.44-2.37a1.52,1.52,0,0,1,.53,3l-13.44,2.37A1.23,1.23,0,0,1,854.57,744.1Zm4.62,12.26L871,749.54a1.52,1.52,0,0,0-1.52-2.64l-11.81,6.83a1.52,1.52,0,0,0,1.52,2.63Zm8.28,10L876.24,756a1.52,1.52,0,0,0-2.33-2l-8.77,10.45a1.52,1.52,0,0,0,2.33,2ZM878.69,773l4.66-12.82a1.52,1.52,0,1,0-2.85-1L875.83,772a1.52,1.52,0,0,0,.91,1.95,1.58,1.58,0,0,0,.52.09A1.52,1.52,0,0,0,878.69,773Z"/><g class="cls-3"><path class="cls-1" d="M890,776.91a1.52,1.52,0,0,1-1.52-1.52V761.75a1.52,1.52,0,0,1,3,0v13.64A1.52,1.52,0,0,1,890,776.91Z"/></g><g class="cls-4"><path class="cls-1" d="M914.51,769.33a1.5,1.5,0,0,1-1.16-.54l-8.78-10.45a1.52,1.52,0,0,1,2.33-2l8.77,10.46a1.51,1.51,0,0,1-1.16,2.49Z"/></g><g class="cls-5"><path class="cls-1" d="M923.37,759.77a1.49,1.49,0,0,1-.76-.2l-11.81-6.82a1.52,1.52,0,1,1,1.52-2.64l11.81,6.83a1.52,1.52,0,0,1-.76,2.83Z"/></g><g class="cls-6"><path class="cls-1" d="M928.43,747.75a1.14,1.14,0,0,1-.26,0l-13.44-2.37a1.52,1.52,0,1,1,.53-3l13.44,2.37a1.52,1.52,0,0,1-.27,3Z"/></g><path class="cls-1" d="M893.68,715.56a1.52,1.52,0,0,1-1.52-1.52V700.4a1.52,1.52,0,0,1,3,0V714A1.52,1.52,0,0,1,893.68,715.56Zm-7.75.72a1.53,1.53,0,0,0,.91-1.95l-4.67-12.82a1.52,1.52,0,1,0-2.86,1L884,715.37a1.52,1.52,0,0,0,1.43,1A1.58,1.58,0,0,0,885.93,716.28Zm-7,3.32a1.52,1.52,0,0,0,.19-2.14L870.31,707a1.52,1.52,0,0,0-2.33,2l8.77,10.45a1.53,1.53,0,0,0,2.14.19Zm-5.48,5.52a1.51,1.51,0,0,0-.56-2.07L861,716.23a1.52,1.52,0,1,0-1.52,2.63l11.82,6.82a1.46,1.46,0,0,0,.75.2A1.51,1.51,0,0,0,873.41,725.12Zm-3.26,7.07a1.52,1.52,0,0,0-1.23-1.76l-13.44-2.37a1.52,1.52,0,1,0-.52,3l13.43,2.37.27,0A1.52,1.52,0,0,0,870.15,732.19Zm45.75,4.89,13.44-2.37a1.52,1.52,0,0,0-.53-3l-13.44,2.36a1.52,1.52,0,0,0,.27,3Zm-1.73-8.19L926,722.07a1.52,1.52,0,0,0-1.52-2.63l-11.82,6.82a1.52,1.52,0,0,0-.56,2.08,1.56,1.56,0,0,0,1.32.76A1.5,1.5,0,0,0,914.17,728.89Zm-4.43-7.1,8.77-10.45a1.52,1.52,0,1,0-2.33-2l-8.77,10.45a1.52,1.52,0,1,0,2.33,1.95Zm-6.59-5.15,4.67-12.83a1.52,1.52,0,0,0-2.86-1L900.3,715.6a1.52,1.52,0,0,0,.91,1.95,1.54,1.54,0,0,0,.52.09A1.52,1.52,0,0,0,903.15,716.64Z"/><path class="cls-1" d="M385.77,332a2.5,2.5,0,0,1-2.5-2.5V201H539.86a2.5,2.5,0,0,1,0,5H388.27V329.46A2.5,2.5,0,0,1,385.77,332Z"/><polygon class="cls-1" points="529.9 211.99 538.39 203.51 529.9 195.04 537.1 195.04 545.58 203.51 537.1 211.99 529.9 211.99"/><path class="cls-1" d="M539.86,657.86H383.27V537.07a2.5,2.5,0,0,1,5,0V652.86H539.86a2.5,2.5,0,0,1,0,5Z"/><polygon class="cls-1" points="529.9 663.83 538.39 655.36 529.9 646.88 537.1 646.88 545.58 655.36 537.1 663.83 529.9 663.83"/><path class="cls-1" d="M1360.09,660.83H1231.64a2.5,2.5,0,0,1,0-5h123.45v-113a2.5,2.5,0,0,1,5,0Z"/><polygon class="cls-1" points="1366.07 552.75 1357.59 544.27 1349.11 552.75 1349.11 545.55 1357.59 537.07 1366.07 545.55 1366.07 552.75"/><path class="cls-1" d="M1357.59,360.11a2.5,2.5,0,0,1-2.5-2.5V206H1231.64a2.5,2.5,0,0,1,0-5h128.45V357.61A2.5,2.5,0,0,1,1357.59,360.11Z"/><polygon class="cls-1" points="1349.11 347.65 1357.59 356.13 1366.07 347.65 1366.07 354.85 1357.59 363.32 1349.11 354.85 1349.11 347.65"/><path class="cls-1" d="M1021.06,662.36h-251a2.5,2.5,0,0,1,0-5h251a2.5,2.5,0,0,1,0,5Z"/><polygon class="cls-1" points="1011.1 668.34 1019.58 659.86 1011.1 651.39 1018.3 651.39 1026.77 659.86 1018.3 668.34 1011.1 668.34"/><path class="cls-1" d="M797.08,206H736.86a2.5,2.5,0,0,1,0-5h60.22a2.5,2.5,0,0,1,0,5Z"/><polygon class="cls-1" points="787.12 211.99 795.6 203.51 787.12 195.04 794.31 195.04 802.79 203.51 794.31 211.99 787.12 211.99"/><path class="cls-1" d="M273.19,436.68H213a2.5,2.5,0,1,1,0-5h60.21a2.5,2.5,0,0,1,0,5Z"/><polygon class="cls-1" points="263.23 442.66 271.71 434.18 263.23 425.7 270.43 425.7 278.91 434.18 270.43 442.66 263.23 442.66"/><path class="cls-1" d="M1030.75,206H970.54a2.5,2.5,0,0,1,0-5h60.21a2.5,2.5,0,0,1,0,5Z"/><polygon class="cls-1" points="1020.79 211.99 1029.27 203.51 1020.79 195.04 1027.99 195.04 1036.46 203.51 1027.99 211.99 1020.79 211.99"/><path class="cls-1" d="M55.82,511.63a8.19,8.19,0,0,1-2.69,5.68,9.15,9.15,0,0,1-6.23,2,8.88,8.88,0,0,1-4.79-1.29,8.46,8.46,0,0,1-3.19-3.66,13.26,13.26,0,0,1-1.18-5.52v-2.12a13.36,13.36,0,0,1,1.14-5.68,8.67,8.67,0,0,1,3.28-3.78A9.16,9.16,0,0,1,47.09,496a8.78,8.78,0,0,1,6.06,2,8.54,8.54,0,0,1,2.67,5.78H51.88a5.54,5.54,0,0,0-1.43-3.54,4.67,4.67,0,0,0-3.36-1.09,4.61,4.61,0,0,0-4,1.89,9.33,9.33,0,0,0-1.42,5.52v2A10,10,0,0,0,43,514.22a4.37,4.37,0,0,0,3.87,1.94,5.1,5.1,0,0,0,3.5-1,5.43,5.43,0,0,0,1.48-3.48Z"/><path class="cls-1" d="M58.27,510.43a9.93,9.93,0,0,1,1-4.48A7.21,7.21,0,0,1,62,502.89a7.86,7.86,0,0,1,4.1-1.07,7.37,7.37,0,0,1,5.55,2.2A8.71,8.71,0,0,1,74,509.86v.9a10,10,0,0,1-1,4.46,7.09,7.09,0,0,1-2.75,3,7.83,7.83,0,0,1-4.13,1.08A7.32,7.32,0,0,1,60.42,517a9.16,9.16,0,0,1-2.15-6.36Zm3.8.33a6.77,6.77,0,0,0,1.08,4.08,3.5,3.5,0,0,0,3,1.48,3.46,3.46,0,0,0,3-1.5,7.56,7.56,0,0,0,1.07-4.39,6.78,6.78,0,0,0-1.1-4.07,3.71,3.71,0,0,0-5.94,0A7.4,7.4,0,0,0,62.07,510.76Z"/><path class="cls-1" d="M80.77,502.13l.11,1.77a6.09,6.09,0,0,1,4.88-2.08q3.39,0,4.64,2.59a6,6,0,0,1,5.19-2.59,5.27,5.27,0,0,1,4.16,1.54,6.85,6.85,0,0,1,1.4,4.57V519h-3.8V508a3.35,3.35,0,0,0-.7-2.36,3.09,3.09,0,0,0-2.33-.75,3.2,3.2,0,0,0-2.12.69,3.67,3.67,0,0,0-1.14,1.82V519h-3.8V507.91a2.7,2.7,0,0,0-3-3A3.36,3.36,0,0,0,81,506.79V519H77.2V502.13Z"/><path class="cls-1" d="M119.85,510.76a10,10,0,0,1-1.78,6.25,6.18,6.18,0,0,1-9.23.51v8H105V502.13h3.5l.16,1.72a5.58,5.58,0,0,1,4.54-2,5.76,5.76,0,0,1,4.85,2.3,10.29,10.29,0,0,1,1.76,6.4Zm-3.78-.33a7,7,0,0,0-1-4,3.26,3.26,0,0,0-2.88-1.48,3.48,3.48,0,0,0-3.34,1.92v7.5a3.52,3.52,0,0,0,3.37,2,3.28,3.28,0,0,0,2.84-1.46A7.8,7.8,0,0,0,116.07,510.43Z"/><path class="cls-1" d="M133.31,517.38a5.91,5.91,0,0,1-4.75,2,5.26,5.26,0,0,1-4.17-1.61,6.87,6.87,0,0,1-1.41-4.66v-11h3.79V513c0,2.14.9,3.22,2.68,3.22a3.76,3.76,0,0,0,3.73-2V502.13H137V519H133.4Z"/><path class="cls-1" d="M145.6,498v4.11h3v2.81h-3v9.44a2.05,2.05,0,0,0,.39,1.4,1.74,1.74,0,0,0,1.36.43,5.56,5.56,0,0,0,1.33-.16V519a9.32,9.32,0,0,1-2.5.36c-2.92,0-4.37-1.61-4.37-4.83v-9.58H139v-2.81h2.79V498Z"/><path class="cls-1" d="M158.93,519.35a7.86,7.86,0,0,1-5.85-2.27,8.25,8.25,0,0,1-2.24-6.06v-.47a10.14,10.14,0,0,1,1-4.52,7.41,7.41,0,0,1,2.75-3.1,7.2,7.2,0,0,1,3.93-1.11,6.65,6.65,0,0,1,5.34,2.2,9.36,9.36,0,0,1,1.88,6.24v1.53h-11a5.09,5.09,0,0,0,1.39,3.31,4.22,4.22,0,0,0,3.09,1.22,5.15,5.15,0,0,0,4.25-2.11l2,1.95a6.8,6.8,0,0,1-2.71,2.35A8.49,8.49,0,0,1,158.93,519.35Zm-.45-14.49A3.21,3.21,0,0,0,156,506a5.6,5.6,0,0,0-1.22,3.05H162v-.29a4.61,4.61,0,0,0-1-2.88A3.19,3.19,0,0,0,158.48,504.86Z"/><path class="cls-1" d="M177.51,505.6a9.82,9.82,0,0,0-1.55-.13,3.48,3.48,0,0,0-3.51,2V519h-3.8V502.13h3.62l.1,1.89a4.27,4.27,0,0,1,3.81-2.2,3.44,3.44,0,0,1,1.34.22Z"/><path class="cls-1" d="M201,513.74h-8.81l-1.85,5.3h-4.11l8.6-22.75h3.54L207,519h-4.12Zm-7.71-3.19h6.6l-3.3-9.44Z"/><path class="cls-1" d="M348.93,510.29h-4.41V519h-3.95V496.29h8a9.37,9.37,0,0,1,6.08,1.76,6.29,6.29,0,0,1,2.14,5.12,6.43,6.43,0,0,1-1.1,3.82,7,7,0,0,1-3.07,2.37l5.11,9.47V519h-4.24Zm-4.41-3.19h4.06a4.53,4.53,0,0,0,3.13-1,3.51,3.51,0,0,0,1.12-2.76,3.72,3.72,0,0,0-1-2.82,4.47,4.47,0,0,0-3.11-1h-4.17Z"/><path class="cls-1" d="M359.46,510.43a10.06,10.06,0,0,1,1-4.48,7.17,7.17,0,0,1,2.77-3.06,7.82,7.82,0,0,1,4.09-1.07,7.39,7.39,0,0,1,5.56,2.2,8.66,8.66,0,0,1,2.3,5.84l0,.9a10,10,0,0,1-1,4.46,7.09,7.09,0,0,1-2.75,3,7.86,7.86,0,0,1-4.14,1.08,7.32,7.32,0,0,1-5.72-2.38,9.16,9.16,0,0,1-2.15-6.36Zm3.8.33a6.84,6.84,0,0,0,1.07,4.08,3.77,3.77,0,0,0,6,0,7.56,7.56,0,0,0,1.07-4.39,6.78,6.78,0,0,0-1.1-4.07,3.54,3.54,0,0,0-3-1.5,3.49,3.49,0,0,0-2.95,1.48A7.41,7.41,0,0,0,363.26,510.76Z"/><path class="cls-1" d="M388.63,517.38a5.89,5.89,0,0,1-4.75,2,5.25,5.25,0,0,1-4.16-1.61,6.82,6.82,0,0,1-1.42-4.66v-11h3.8V513c0,2.14.89,3.22,2.67,3.22a3.77,3.77,0,0,0,3.74-2V502.13h3.79V519h-3.57Z"/><path class="cls-1" d="M400.93,498v4.11h3v2.81h-3v9.44a2.11,2.11,0,0,0,.38,1.4,1.77,1.77,0,0,0,1.37.43,5.56,5.56,0,0,0,1.33-.16V519a9.38,9.38,0,0,1-2.5.36q-4.38,0-4.38-4.83v-9.58h-2.78v-2.81h2.78V498Z"/><path class="cls-1" d="M414.26,519.35a7.86,7.86,0,0,1-5.85-2.27,8.25,8.25,0,0,1-2.25-6.06v-.47a10.14,10.14,0,0,1,1-4.52,7.39,7.39,0,0,1,2.74-3.1,7.26,7.26,0,0,1,3.94-1.11,6.65,6.65,0,0,1,5.34,2.2,9.36,9.36,0,0,1,1.88,6.24v1.53H410a5.09,5.09,0,0,0,1.4,3.31,4.22,4.22,0,0,0,3.09,1.22,5.18,5.18,0,0,0,4.25-2.11l2,1.95a6.8,6.8,0,0,1-2.71,2.35A8.45,8.45,0,0,1,414.26,519.35Zm-.46-14.49a3.19,3.19,0,0,0-2.52,1.1,5.69,5.69,0,0,0-1.23,3.05h7.24v-.29a4.61,4.61,0,0,0-1-2.88A3.16,3.16,0,0,0,413.8,504.86Z"/><path class="cls-1" d="M432.83,505.6a9.7,9.7,0,0,0-1.54-.13,3.5,3.5,0,0,0-3.52,2V519H424V502.13h3.62l.09,1.89a4.28,4.28,0,0,1,3.82-2.2,3.44,3.44,0,0,1,1.34.22Z"/><path class="cls-1" d="M595.38,108.62h-4L581.29,92.48v16.14h-3.95V85.87h3.95l10.17,16.2V85.87h3.92Z"/><path class="cls-1" d="M607.13,108.93a7.89,7.89,0,0,1-5.85-2.27A8.29,8.29,0,0,1,599,100.6v-.47a10.17,10.17,0,0,1,1-4.52,7.39,7.39,0,0,1,2.74-3.1,7.26,7.26,0,0,1,3.94-1.11A6.61,6.61,0,0,1,612,93.6a9.31,9.31,0,0,1,1.89,6.24v1.53h-11a5,5,0,0,0,1.4,3.31,4.18,4.18,0,0,0,3.08,1.22,5.13,5.13,0,0,0,4.25-2.11l2,1.95a6.8,6.8,0,0,1-2.71,2.35A8.46,8.46,0,0,1,607.13,108.93Zm-.45-14.48a3.19,3.19,0,0,0-2.52,1.09,5.72,5.72,0,0,0-1.23,3h7.24v-.28a4.7,4.7,0,0,0-1-2.89A3.17,3.17,0,0,0,606.68,94.45Z"/><path class="cls-1" d="M621.62,87.6v4.11h3v2.81h-3V104a2.11,2.11,0,0,0,.38,1.4,1.77,1.77,0,0,0,1.37.43,5.56,5.56,0,0,0,1.33-.16v2.94a9.38,9.38,0,0,1-2.5.36q-4.38,0-4.38-4.83V94.52H615V91.71h2.78V87.6Z"/><path class="cls-1" d="M642.35,103.38,645,91.71h3.7l-4.61,16.91H641L637.38,97l-3.56,11.61H630.7l-4.63-16.91h3.71l2.73,11.55L636,91.71h2.86Z"/><path class="cls-1" d="M650.57,100a9.93,9.93,0,0,1,1-4.48,7.09,7.09,0,0,1,2.76-3.06,7.83,7.83,0,0,1,4.1-1.07A7.37,7.37,0,0,1,664,93.6a8.72,8.72,0,0,1,2.31,5.85v.89a10.12,10.12,0,0,1-1,4.47,7.12,7.12,0,0,1-2.75,3,7.83,7.83,0,0,1-4.13,1.08,7.32,7.32,0,0,1-5.73-2.38,9.15,9.15,0,0,1-2.15-6.35Zm3.8.33a6.77,6.77,0,0,0,1.08,4.08,3.5,3.5,0,0,0,3,1.48,3.46,3.46,0,0,0,3-1.5,7.54,7.54,0,0,0,1.07-4.39,6.74,6.74,0,0,0-1.1-4.06,3.72,3.72,0,0,0-5.95,0A7.41,7.41,0,0,0,654.37,100.34Z"/><path class="cls-1" d="M678.35,95.18a9.7,9.7,0,0,0-1.54-.12,3.48,3.48,0,0,0-3.52,2v11.56h-3.8V91.71h3.63l.09,1.89A4.28,4.28,0,0,1,677,91.4a3.48,3.48,0,0,1,1.34.22Z"/><path class="cls-1" d="M686.24,101.37l-1.68,1.73v5.52h-3.8v-24h3.8V98.46L685.74,97l4.68-5.27H695l-6.28,7.05,6.95,9.86h-4.39Z"/><path class="cls-1" d="M715.46,108.62h-3.78V90.34l-5.58,1.9V89.06L715,85.79h.48Z"/><path class="cls-1" d="M836.05,108.62H832.1L822,92.48v16.14h-4V85.87h4l10.17,16.2V85.87h3.92Z"/><path class="cls-1" d="M847.8,108.93a7.89,7.89,0,0,1-5.85-2.27,8.29,8.29,0,0,1-2.24-6.06v-.47a10.17,10.17,0,0,1,1-4.52,7.39,7.39,0,0,1,2.74-3.1,7.26,7.26,0,0,1,3.94-1.11,6.61,6.61,0,0,1,5.33,2.2,9.31,9.31,0,0,1,1.89,6.24v1.53H843.54a5,5,0,0,0,1.4,3.31A4.18,4.18,0,0,0,848,105.9a5.13,5.13,0,0,0,4.25-2.11l2.05,1.95a6.8,6.8,0,0,1-2.71,2.35A8.46,8.46,0,0,1,847.8,108.93Zm-.45-14.48a3.19,3.19,0,0,0-2.52,1.09,5.72,5.72,0,0,0-1.23,3h7.24v-.28a4.7,4.7,0,0,0-1-2.89A3.17,3.17,0,0,0,847.35,94.45Z"/><path class="cls-1" d="M862.29,87.6v4.11h3v2.81h-3V104a2.11,2.11,0,0,0,.38,1.4,1.77,1.77,0,0,0,1.37.43,5.56,5.56,0,0,0,1.33-.16v2.94a9.38,9.38,0,0,1-2.5.36q-4.38,0-4.38-4.83V94.52h-2.78V91.71h2.78V87.6Z"/><path class="cls-1" d="M883,103.38l2.69-11.67h3.7l-4.61,16.91h-3.12L878.05,97l-3.56,11.61h-3.12l-4.63-16.91h3.71l2.73,11.55,3.47-11.55h2.86Z"/><path class="cls-1" d="M891.24,100a9.93,9.93,0,0,1,1-4.48A7.09,7.09,0,0,1,895,92.47a7.83,7.83,0,0,1,4.1-1.07,7.37,7.37,0,0,1,5.55,2.2A8.72,8.72,0,0,1,907,99.45v.89a10.12,10.12,0,0,1-1,4.47,7.12,7.12,0,0,1-2.75,3,7.83,7.83,0,0,1-4.13,1.08,7.32,7.32,0,0,1-5.73-2.38,9.15,9.15,0,0,1-2.15-6.35Zm3.8.33a6.77,6.77,0,0,0,1.08,4.08,3.5,3.5,0,0,0,3,1.48,3.46,3.46,0,0,0,3-1.5,7.54,7.54,0,0,0,1.07-4.39,6.74,6.74,0,0,0-1.1-4.06,3.72,3.72,0,0,0-6,0A7.41,7.41,0,0,0,895,100.34Z"/><path class="cls-1" d="M919,95.18a9.7,9.7,0,0,0-1.54-.12,3.48,3.48,0,0,0-3.52,2v11.56h-3.8V91.71h3.63l.09,1.89a4.28,4.28,0,0,1,3.82-2.2,3.48,3.48,0,0,1,1.34.22Z"/><path class="cls-1" d="M926.91,101.37l-1.68,1.73v5.52h-3.8v-24h3.8V98.46L926.41,97l4.68-5.27h4.56l-6.28,7.05,7,9.86h-4.39Z"/><path class="cls-1" d="M950.24,95.51h2.31a4.11,4.11,0,0,0,2.78-.91,3.23,3.23,0,0,0,1-2.58,3.51,3.51,0,0,0-.85-2.52,3.43,3.43,0,0,0-2.6-.9,3.64,3.64,0,0,0-2.52.89,2.94,2.94,0,0,0-1,2.3h-3.8a5.75,5.75,0,0,1,.93-3.19,6.3,6.3,0,0,1,2.59-2.24,8.43,8.43,0,0,1,3.73-.8,7.81,7.81,0,0,1,5.35,1.71A6,6,0,0,1,960.15,92a4.84,4.84,0,0,1-1,2.89,6.14,6.14,0,0,1-2.52,2,5.28,5.28,0,0,1,3.83,5.29,6.11,6.11,0,0,1-2.1,4.88,8.19,8.19,0,0,1-5.53,1.81,8.05,8.05,0,0,1-5.37-1.75,5.76,5.76,0,0,1-2.1-4.66h3.8a3.18,3.18,0,0,0,1,2.44,3.79,3.79,0,0,0,2.71.94,3.92,3.92,0,0,0,2.78-.94,3.5,3.5,0,0,0,1-2.72,3.54,3.54,0,0,0-1.07-2.76,4.52,4.52,0,0,0-3.15-1h-2.24Z"/><path class="cls-1" d="M610.08,776.91h-4L596,760.77v16.14h-4V754.16h4l10.17,16.21V754.16h3.92Z"/><path class="cls-1" d="M621.83,777.23A7.84,7.84,0,0,1,616,775a8.25,8.25,0,0,1-2.24-6.05v-.47a10.11,10.11,0,0,1,1-4.52,7.51,7.51,0,0,1,2.75-3.11,7.22,7.22,0,0,1,3.93-1.11,6.64,6.64,0,0,1,5.34,2.21,9.28,9.28,0,0,1,1.88,6.23v1.53h-11A5.11,5.11,0,0,0,619,773a4.21,4.21,0,0,0,3.09,1.21,5.14,5.14,0,0,0,4.25-2.1l2.05,1.95a6.87,6.87,0,0,1-2.71,2.35A8.46,8.46,0,0,1,621.83,777.23Zm-.45-14.49a3.19,3.19,0,0,0-2.52,1.1,5.57,5.57,0,0,0-1.23,3h7.23v-.28a4.61,4.61,0,0,0-1-2.88A3.19,3.19,0,0,0,621.38,762.74Z"/><path class="cls-1" d="M636.32,755.9V760h3v2.81h-3v9.44a2.07,2.07,0,0,0,.38,1.4,1.79,1.79,0,0,0,1.37.43,6,6,0,0,0,1.32-.16v2.94a9.27,9.27,0,0,1-2.5.36q-4.36,0-4.37-4.83v-9.58h-2.78V760h2.78V755.9Z"/><path class="cls-1" d="M657.05,771.68,659.74,760h3.7l-4.61,16.9h-3.12l-3.63-11.61-3.56,11.61h-3.13L640.77,760h3.7l2.74,11.54L650.68,760h2.86Z"/><path class="cls-1" d="M665.27,768.3a10,10,0,0,1,1-4.47,7.17,7.17,0,0,1,2.77-3.06,7.74,7.74,0,0,1,4.09-1.08,7.4,7.4,0,0,1,5.56,2.21,8.64,8.64,0,0,1,2.3,5.84l0,.89a10.05,10.05,0,0,1-1,4.47,7.15,7.15,0,0,1-2.75,3,7.86,7.86,0,0,1-4.14,1.08,7.32,7.32,0,0,1-5.72-2.39,9.11,9.11,0,0,1-2.15-6.35Zm3.8.33a6.9,6.9,0,0,0,1.07,4.09,3.51,3.51,0,0,0,3,1.47,3.48,3.48,0,0,0,3-1.5,7.54,7.54,0,0,0,1.07-4.39,6.76,6.76,0,0,0-1.1-4.06,3.54,3.54,0,0,0-3-1.5,3.47,3.47,0,0,0-3,1.48A7.35,7.35,0,0,0,669.07,768.63Z"/><path class="cls-1" d="M693.05,763.48a8.68,8.68,0,0,0-1.55-.13,3.48,3.48,0,0,0-3.51,2v11.56h-3.8V760h3.63l.09,1.89a4.29,4.29,0,0,1,3.81-2.21,3.74,3.74,0,0,1,1.35.22Z"/><path class="cls-1" d="M700.94,769.66l-1.69,1.74v5.51h-3.79v-24h3.79v13.85l1.19-1.49,4.67-5.26h4.57l-6.29,7,7,9.86H706Z"/><path class="cls-1" d="M735.18,776.91h-15.3V774.3l7.58-8.26a18.74,18.74,0,0,0,2.33-3.06,4.85,4.85,0,0,0,.7-2.46,3.72,3.72,0,0,0-.92-2.62,3.16,3.16,0,0,0-2.46-1,3.66,3.66,0,0,0-2.86,1.12,4.46,4.46,0,0,0-1,3.08h-3.8a7.45,7.45,0,0,1,.95-3.74,6.55,6.55,0,0,1,2.7-2.59,8.64,8.64,0,0,1,4-.92,7.71,7.71,0,0,1,5.23,1.67,5.75,5.75,0,0,1,1.92,4.6,7.87,7.87,0,0,1-1,3.57,20.53,20.53,0,0,1-3.14,4.24l-5.57,6h10.57Z"/><path class="cls-1" d="M1072.89,776.91h-4l-10.14-16.14v16.14h-4V754.16h4L1069,770.37V754.16h3.93Z"/><path class="cls-1" d="M1084.64,777.23a7.86,7.86,0,0,1-5.86-2.28,8.25,8.25,0,0,1-2.24-6.05v-.47a10.11,10.11,0,0,1,1-4.52,7.42,7.42,0,0,1,2.74-3.11,7.26,7.26,0,0,1,3.94-1.11,6.62,6.62,0,0,1,5.33,2.21,9.28,9.28,0,0,1,1.89,6.23v1.53h-11.05a5.07,5.07,0,0,0,1.4,3.32,4.19,4.19,0,0,0,3.08,1.21,5.14,5.14,0,0,0,4.25-2.1l2.05,1.95a6.87,6.87,0,0,1-2.71,2.35A8.45,8.45,0,0,1,1084.64,777.23Zm-.46-14.49a3.19,3.19,0,0,0-2.52,1.1,5.65,5.65,0,0,0-1.23,3h7.24v-.28a4.61,4.61,0,0,0-1-2.88A3.18,3.18,0,0,0,1084.18,762.74Z"/><path class="cls-1" d="M1099.12,755.9V760h3v2.81h-3v9.44a2.13,2.13,0,0,0,.38,1.4,1.81,1.81,0,0,0,1.37.43,6.12,6.12,0,0,0,1.33-.16v2.94a9.38,9.38,0,0,1-2.5.36q-4.38,0-4.38-4.83v-9.58h-2.78V760h2.78V755.9Z"/><path class="cls-1" d="M1119.85,771.68l2.69-11.67h3.71l-4.61,16.9h-3.13l-3.62-11.61-3.57,11.61h-3.12l-4.63-16.9h3.71l2.73,11.54,3.47-11.54h2.86Z"/><path class="cls-1" d="M1128.07,768.3a9.92,9.92,0,0,1,1-4.47,7.15,7.15,0,0,1,2.76-3.06,7.77,7.77,0,0,1,4.1-1.08,7.37,7.37,0,0,1,5.55,2.21,8.69,8.69,0,0,1,2.31,5.84v.89a10.05,10.05,0,0,1-1,4.47,7.15,7.15,0,0,1-2.75,3,7.83,7.83,0,0,1-4.13,1.08,7.33,7.33,0,0,1-5.73-2.39,9.11,9.11,0,0,1-2.15-6.35Zm3.8.33a6.83,6.83,0,0,0,1.08,4.09,3.51,3.51,0,0,0,3,1.47,3.46,3.46,0,0,0,3-1.5,7.54,7.54,0,0,0,1.07-4.39,6.76,6.76,0,0,0-1.1-4.06,3.72,3.72,0,0,0-6,0A7.35,7.35,0,0,0,1131.87,768.63Z"/><path class="cls-1" d="M1155.85,763.48a8.65,8.65,0,0,0-1.54-.13,3.5,3.5,0,0,0-3.52,2v11.56H1147V760h3.62l.09,1.89a4.29,4.29,0,0,1,3.82-2.21,3.64,3.64,0,0,1,1.34.22Z"/><path class="cls-1" d="M1163.75,769.66l-1.69,1.74v5.51h-3.8v-24h3.8v13.85l1.19-1.49,4.67-5.26h4.56l-6.28,7,7,9.86h-4.39Z"/><path class="cls-1" d="M1195.53,768.8h2.82v3.05h-2.82v5.06h-3.8v-5.06h-9.83l-.11-2.31,9.81-15.38h3.93Zm-9.75,0h6v-9.5l-.28.5Z"/><path class="cls-1" d="M1292.28,511.63a8.23,8.23,0,0,1-2.69,5.68,9.16,9.16,0,0,1-6.24,2,8.84,8.84,0,0,1-4.78-1.29,8.42,8.42,0,0,1-3.2-3.66,13.26,13.26,0,0,1-1.17-5.52v-2.12a13.36,13.36,0,0,1,1.14-5.68,8.65,8.65,0,0,1,3.27-3.78,9.19,9.19,0,0,1,4.93-1.33,8.78,8.78,0,0,1,6.06,2,8.51,8.51,0,0,1,2.68,5.78h-3.94a5.65,5.65,0,0,0-1.43-3.54,4.71,4.71,0,0,0-3.37-1.09,4.61,4.61,0,0,0-4,1.89,9.4,9.4,0,0,0-1.41,5.52v2a10,10,0,0,0,1.32,5.63,4.36,4.36,0,0,0,3.86,1.94,5.08,5.08,0,0,0,3.5-1,5.38,5.38,0,0,0,1.49-3.48Z"/><path class="cls-1" d="M1294.73,510.43a10.06,10.06,0,0,1,1-4.48,7.17,7.17,0,0,1,2.77-3.06,7.82,7.82,0,0,1,4.09-1.07,7.39,7.39,0,0,1,5.56,2.2,8.66,8.66,0,0,1,2.3,5.84l0,.9a10,10,0,0,1-1,4.46,7.09,7.09,0,0,1-2.75,3,7.86,7.86,0,0,1-4.14,1.08,7.32,7.32,0,0,1-5.72-2.38,9.16,9.16,0,0,1-2.15-6.36Zm3.8.33a6.84,6.84,0,0,0,1.07,4.08,3.77,3.77,0,0,0,6,0,7.56,7.56,0,0,0,1.07-4.39,6.78,6.78,0,0,0-1.1-4.07,3.54,3.54,0,0,0-3-1.5,3.49,3.49,0,0,0-3,1.48A7.41,7.41,0,0,0,1298.53,510.76Z"/><path class="cls-1" d="M1317.23,502.13l.11,1.77a6.07,6.07,0,0,1,4.87-2.08q3.39,0,4.64,2.59a6,6,0,0,1,5.19-2.59,5.29,5.29,0,0,1,4.17,1.54,6.85,6.85,0,0,1,1.39,4.57V519h-3.79V508a3.35,3.35,0,0,0-.71-2.36,3,3,0,0,0-2.32-.75,3.18,3.18,0,0,0-2.12.69,3.68,3.68,0,0,0-1.15,1.82l0,11.6h-3.8V507.91a2.71,2.71,0,0,0-3-3,3.33,3.33,0,0,0-3.23,1.86V519h-3.8V502.13Z"/><path class="cls-1" d="M1356.31,510.76a10.08,10.08,0,0,1-1.78,6.25,6.19,6.19,0,0,1-9.24.51v8h-3.79V502.13h3.5l.15,1.72a5.6,5.6,0,0,1,4.55-2,5.77,5.77,0,0,1,4.85,2.3,10.36,10.36,0,0,1,1.76,6.4Zm-3.78-.33a7.08,7.08,0,0,0-1-4,3.26,3.26,0,0,0-2.88-1.48,3.5,3.5,0,0,0-3.35,1.92v7.5a3.53,3.53,0,0,0,3.38,2,3.27,3.27,0,0,0,2.83-1.46A7.79,7.79,0,0,0,1352.53,510.43Z"/><path class="cls-1" d="M1369.76,517.38a5.89,5.89,0,0,1-4.75,2,5.25,5.25,0,0,1-4.16-1.61,6.82,6.82,0,0,1-1.42-4.66v-11h3.8V513c0,2.14.89,3.22,2.67,3.22a3.77,3.77,0,0,0,3.74-2V502.13h3.79V519h-3.58Z"/><path class="cls-1" d="M1382.06,498v4.11h3v2.81h-3v9.44a2.06,2.06,0,0,0,.38,1.4,1.77,1.77,0,0,0,1.37.43,5.56,5.56,0,0,0,1.33-.16V519a9.38,9.38,0,0,1-2.5.36q-4.38,0-4.38-4.83v-9.58h-2.78v-2.81h2.78V498Z"/><path class="cls-1" d="M1395.39,519.35a7.9,7.9,0,0,1-5.86-2.27,8.29,8.29,0,0,1-2.24-6.06v-.47a10.14,10.14,0,0,1,1-4.52,7.39,7.39,0,0,1,2.74-3.1,7.26,7.26,0,0,1,3.94-1.11,6.61,6.61,0,0,1,5.33,2.2,9.31,9.31,0,0,1,1.89,6.24v1.53h-11.05a5,5,0,0,0,1.4,3.31,4.2,4.2,0,0,0,3.08,1.22,5.15,5.15,0,0,0,4.25-2.11l2.05,1.95a6.8,6.8,0,0,1-2.71,2.35A8.45,8.45,0,0,1,1395.39,519.35Zm-.46-14.49a3.19,3.19,0,0,0-2.52,1.1,5.69,5.69,0,0,0-1.23,3.05h7.24v-.29a4.61,4.61,0,0,0-1-2.88A3.18,3.18,0,0,0,1394.93,504.86Z"/><path class="cls-1" d="M1414,505.6a9.7,9.7,0,0,0-1.54-.13,3.49,3.49,0,0,0-3.52,2V519h-3.8V502.13h3.63l.09,1.89a4.28,4.28,0,0,1,3.82-2.2,3.48,3.48,0,0,1,1.34.22Z"/><path class="cls-1" d="M1424.7,519V496.29h7.8a9.51,9.51,0,0,1,5.87,1.54,5.46,5.46,0,0,1,2,4.61,5,5,0,0,1-.85,2.82,5.41,5.41,0,0,1-2.47,1.93,5,5,0,0,1,2.85,1.89,5.41,5.41,0,0,1,1,3.32,6.06,6.06,0,0,1-2,4.92A9,9,0,0,1,1433,519Zm4-13.18h3.88a4.47,4.47,0,0,0,2.88-.83,2.88,2.88,0,0,0,1-2.37,2.92,2.92,0,0,0-1-2.44,4.85,4.85,0,0,0-3-.75h-3.85Zm0,2.91v7.11H1433A4.28,4.28,0,0,0,1436,515a3.24,3.24,0,0,0,1-2.56q0-3.56-3.63-3.63Z"/><path class="cls-1" d="M1066.12,108.62h-3.95L1052,92.48v16.14h-4V85.87h4l10.17,16.2V85.87h3.92Z"/><path class="cls-1" d="M1077.88,108.93a7.9,7.9,0,0,1-5.86-2.27,8.29,8.29,0,0,1-2.24-6.06v-.47a10.17,10.17,0,0,1,1-4.52,7.39,7.39,0,0,1,2.74-3.1,7.26,7.26,0,0,1,3.94-1.11,6.61,6.61,0,0,1,5.33,2.2,9.31,9.31,0,0,1,1.89,6.24v1.53h-11.05a5,5,0,0,0,1.4,3.31,4.2,4.2,0,0,0,3.08,1.22,5.13,5.13,0,0,0,4.25-2.11l2.05,1.95a6.8,6.8,0,0,1-2.71,2.35A8.45,8.45,0,0,1,1077.88,108.93Zm-.46-14.48a3.19,3.19,0,0,0-2.52,1.09,5.72,5.72,0,0,0-1.23,3h7.24v-.28a4.7,4.7,0,0,0-1-2.89A3.17,3.17,0,0,0,1077.42,94.45Z"/><path class="cls-1" d="M1092.36,87.6v4.11h3v2.81h-3V104a2.11,2.11,0,0,0,.38,1.4,1.77,1.77,0,0,0,1.37.43,5.56,5.56,0,0,0,1.33-.16v2.94a9.38,9.38,0,0,1-2.5.36q-4.38,0-4.38-4.83V94.52h-2.78V91.71h2.78V87.6Z"/><path class="cls-1" d="M1113.09,103.38l2.69-11.67h3.7l-4.6,16.91h-3.13L1108.12,97l-3.56,11.61h-3.12l-4.63-16.91h3.71l2.73,11.55,3.47-11.55h2.86Z"/><path class="cls-1" d="M1121.31,100a9.93,9.93,0,0,1,1-4.48,7.15,7.15,0,0,1,2.76-3.06,7.83,7.83,0,0,1,4.1-1.07,7.37,7.37,0,0,1,5.55,2.2,8.72,8.72,0,0,1,2.31,5.85v.89a10.12,10.12,0,0,1-1,4.47,7.12,7.12,0,0,1-2.75,3,7.83,7.83,0,0,1-4.13,1.08,7.32,7.32,0,0,1-5.73-2.38,9.15,9.15,0,0,1-2.15-6.35Zm3.8.33a6.77,6.77,0,0,0,1.08,4.08,3.5,3.5,0,0,0,3,1.48,3.46,3.46,0,0,0,3-1.5,7.54,7.54,0,0,0,1.07-4.39,6.74,6.74,0,0,0-1.1-4.06,3.72,3.72,0,0,0-6,0A7.41,7.41,0,0,0,1125.11,100.34Z"/><path class="cls-1" d="M1149.09,95.18a9.7,9.7,0,0,0-1.54-.12,3.48,3.48,0,0,0-3.52,2v11.56h-3.8V91.71h3.63l.09,1.89a4.28,4.28,0,0,1,3.82-2.2,3.48,3.48,0,0,1,1.34.22Z"/><path class="cls-1" d="M1157,101.37l-1.68,1.73v5.52h-3.8v-24h3.8V98.46l1.18-1.48,4.68-5.27h4.56l-6.28,7.05,7,9.86H1162Z"/><path class="cls-1" d="M1176.94,97.34l1.23-11.47h12.22v3.28h-9.06l-.63,5.44a7,7,0,0,1,3.57-.91,6.32,6.32,0,0,1,5,2.08,8.24,8.24,0,0,1,1.8,5.59,7.56,7.56,0,0,1-2,5.53,7.29,7.29,0,0,1-5.48,2.05,7.66,7.66,0,0,1-5.18-1.77,6.43,6.43,0,0,1-2.23-4.68h3.68a4,4,0,0,0,1.18,2.54,3.61,3.61,0,0,0,2.53.88,3.27,3.27,0,0,0,2.73-1.25,5.4,5.4,0,0,0,1-3.41,4.78,4.78,0,0,0-1.08-3.29,3.8,3.8,0,0,0-3-1.21,4.76,4.76,0,0,0-1.75.28,4.89,4.89,0,0,0-1.56,1.07Z"/></svg>