<?xml version="1.0" encoding="UTF-8"?>
<svg width="256px" height="329px" preserveAspectRatio="xMidYMid" version="1.1" viewBox="0 0 256 329" xmlns="http://www.w3.org/2000/svg" xmlns:cc="http://creativecommons.org/ns#" xmlns:dc="http://purl.org/dc/elements/1.1/" xmlns:rdf="http://www.w3.org/1999/02/22-rdf-syntax-ns#">
 <metadata>
  <rdf:RDF>
   <cc:Work rdf:about="">
    <dc:format>image/svg+xml</dc:format>
    <dc:type rdf:resource="http://purl.org/dc/dcmitype/StillImage"/>
    <dc:title/>
   </cc:Work>
  </rdf:RDF>
 </metadata>
 <path d="m0 284.85c4.3294-1.9089 8.9301-2.8624 13.35-2.8624 4.239 0 6.9452 1.0398 8.4781 3.2097 3.2466-2.1679 7.6664-3.2097 11.094-3.2097 10.284 0 10.644 4.1631 10.644 16.393v27.058c0 1.2142 0.18081 1.2142-4.9603 1.2142v-28.794c0-8.846-0.18083-11.536-6.0411-11.536-2.6157 0-5.3219 0.6061-8.2089 2.5151v37.206c-0.090405 0.34737-0.27122 0.43358-0.89999 0.5199-0.092484 0-0.18083 0.086301-0.27329 0.086301h-3.789v-28.792c0-8.4989 0-11.622-6.1315-11.622-2.6157 0-5.2315 0.51988-8.2993 1.9953v37.207c0 1.2142 0.18083 1.2142-4.9602 1.2142v-41.803m67.81-2.8624c-7.6664 0-16.144 2.1678-16.144 25.326 0 17.867 6.2219 20.641 14.792 20.641 6.5815 0 12.265-2.1678 12.265-3.2097 0-1.3006-0.18081-3.2959-0.63083-4.424-2.7966 1.9089-6.7664 2.9486-11.184 2.9486-6.0431 0-10.101-1.7342-10.194-15.177 3.9699 0 14.073-0.086447 21.559-1.5617 0.63083-2.8623 0.89999-7.0255 0.89999-10.667 0-8.6732-3.5178-13.876-11.363-13.876m-0.45205 4.3358c5.4123 0 6.8548 3.5547 6.9452 10.494 0 1.8205-0.090405 3.9884-0.36165 6.0699-5.0507 1.2144-13.621 1.2144-17.229 1.2144 0.63494-15.783 6.0452-17.778 10.646-17.778m19.664-0.5199c4.237-2.7761 8.1185-3.8159 12.086-3.8159 4.4198 0 6.4952 1.2144 6.4952 2.6899 0 0.86703-0.27327 2.3425-0.72329 3.2096-1.2637-0.6946-2.7041-1.3008-5.0527-1.3008-2.8849 0-5.5911 0.7788-7.7548 2.6877v36.167c0 1.2143 0.090427 1.2143-5.0507 1.2143v-40.852m45.536-0.95348c0-1.1281-3.787-2.8624-7.576-2.8624-7.3089 0-16.237 2.5151-16.237 23.937 0 20.293 5.4144 22.116 14.883 22.116 4.689 0 8.9301-2.515 8.9301-3.902 0-0.78092-0.17878-1.9953-0.63288-3.037-1.8945 1.387-4.7794 2.6897-7.8452 2.6897-6.4931 0-10.282-1.8206-10.282-17.606 0-17.433 6.2219-19.862 11.634-19.862 3.0657 0 4.7794 0.86713 6.4931 1.9952 0.4541-1.0397 0.63288-2.5151 0.63288-3.4685m34.551 40.33c-3.9699 1.9952-9.1993 2.7761-13.71 2.7761-11.546 0-13.26-4.8555-13.26-16.391v-27.146c0-1.126-0.088351-1.126 5.0527-1.126v28.794c0 8.6733 1.2616 11.622 8.026 11.622 2.6158 0 6.224-0.51992 8.9301-2.0816v-37.207c0-1.1261-0.18081-1.1261 4.9603-1.1261v41.885m10.286-39.376c4.2369-2.7761 8.1164-3.8159 12.084-3.8159 4.4198 0 6.4952 1.2144 6.4952 2.6899 0 0.86703-0.27124 2.3425-0.72126 3.2096-1.2637-0.6946-2.7061-1.3008-5.0527-1.3008-2.8849 0-5.5911 0.7788-7.7568 2.6877v36.167c0 1.2143 0.092462 1.2143-5.0486 1.2143v-40.852m30.16-2.5151c-3.9698 0-5.141 0-5.141 2.3424v41.022c5.0507 0 5.141 0 5.141-1.2142v-42.15m-5.3219-15.263c0 2.8624 0.90207 3.9022 2.7041 3.9884 2.0753 0 3.0678-1.4733 3.0678-4.0767 0.090405-2.6878-0.63289-3.9021-2.7062-3.9021-1.9828 0-2.9753 1.4754-3.0657 3.9904m13.878 17.778c0-0.95348 0.18082-1.4754 0.54246-1.7343 1.7137-0.95348 8.2993-2.0816 15.785-2.0816 5.6835 0 9.2897 2.6899 9.2897 10.494v5.6364c0 15.438-0.45002 26.974-0.45002 26.974-2.0753 1.126-5.9527 2.8624-12.269 2.8624-6.4931 0.086228-12.986-0.51997-12.986-13.356 0-12.228 6.674-14.137 13.348-14.137 2.5253 0 5.5027 0.26088 7.4876 1.0417v-8.0672c0-5.6363-2.8849-6.8507-6.3144-6.8507-4.5986 0-11.001 0.86713-13.798 2.1679-0.54243-0.95348-0.63492-2.4288-0.63492-2.9487m20.745 19.256c-1.7137-0.60822-4.1486-0.8671-5.8623-0.8671-5.1411 0-9.8321 1.0398-9.8321 10.58 0 8.9322 3.8794 9.0206 8.478 9.0206 2.887 0 5.774-0.78078 6.7644-1.8206 0.002047-0.002095 0.45204-10.41 0.45204-16.913m19.14 20.38c0 1.2142 0.090418 1.2142-4.9623 1.2142v-61.404c0-2.3425 0.99245-2.3425 4.9623-2.3425v62.532" fill="#010101"/>
 <g fill="#1B1A1B">
  <path d="m239.15 190.97c45.729-76.034-9.6579-199.35-110.93-186.82-91.503 11.312-92.978 107.62-12.335 130.5 69.786 19.817 14.417 64.082 16.035 93.558 1.6247 29.472 60.669 40.165 107.23-37.239z"/>
  <path d="m81.333 238.91c21.074-5.5424 33.686-27.198 28.169-48.37-5.517-21.171-27.073-33.841-48.148-28.299s-33.686 27.198-28.169 48.37c5.517 21.171 27.073 33.841 48.148 28.299z"/>
  <path d="m23.781 90.969c-14.189 1.3798-24.576 14.042-23.202 28.297 1.3761 14.265 13.98 24.707 28.172 23.327 14.187-1.3979 24.583-14.057 23.203-28.313-1.379-14.245-13.981-24.691-28.173-23.311z"/>
 </g>
 <path d="m239.34 187.56c45.442-75.902-9.5942-199-110.23-186.5-90.923 11.292-92.39 107.44-12.258 130.28 69.344 19.783 14.326 63.97 15.934 93.398 1.6162 29.418 60.283 40.09 106.55-37.18z" fill="#BFBFBF"/>
 <path d="m144.45 236.35c-2.7537-4.487 1.4573-9.4716 5.7858-9.0926 6.8901 0.60621 21.892-0.081161 33.729-6.8217 29.573-16.842 75.084-97.88 52.194-148.99-10.247-22.88-15.237-29.431-25.79-40.623-2.1528-2.2826-0.91694-2.1585 0.54087-1.3859 5.7068 3.0088 15.735 14.663 26.021 33.632 17.38 32.049 16.478 70.148 10.014 94.048-4.5025 16.626-20.011 54.239-42.722 70.501-22.763 16.3-49.398 25.649-59.773 8.7336z"/>
 <path d="m123.85 131.19c-15.494-4.6204-35.467-11.055-47.02-26.236-8.5168-11.193-12.84-23.41-13.944-30.337-0.39281-2.4717-0.72648-4.5338-0.017709-5.1029 0.32792-0.26429 6.3597 13.432 15.377 24.911 9.0153 11.482 21.616 18.197 32.113 20.637 9.3366 2.1684 28.677 6.9331 35.22 12.533 6.7271 5.7566 7.2886 18.194 5.0249 19.598-2.2829 1.4109-6.9119-10.09-26.753-16.004z"/>
 <path d="m155.79 238.55c-0.29904 3.5625 3.7741 4.2611 9.2569 3.4357 7.0275-1.0589 12.971-1.8539 21.059-5.9264 10.963-5.5192 22.057-13.414 30.183-24.066 24.243-31.775 32.828-69.371 31.506-74.78-0.44178 4.4664-6.2943 27.911-19.679 49.047-17.19 27.149-29.656 41.609-58.405 48.62-8.0008 1.9527-13.529-1.0207-13.921 3.669z" fill="#fff"/>
 <path d="m92.03 114.99c3.2744 2.7901 9.9834 6.508 23.184 10.857 15.944 5.2514 23.706 9.8056 26.957 11.988 3.4449 2.3175 5.6283 7.4886 5.844 2.8956 0.22495-4.598-2.5961-8.5518-8.8906-10.649-4.2586-1.4205-11.423-4.8034-18.29-6.165-4.4128-0.87505-11.592-2.6117-17.749-4.5055-3.3743-1.0419-6.8126-2.8668-11.056-4.4215z" fill="#fff"/>
 <path d="m81.323 235.83c20.991-5.5424 33.552-27.198 28.057-48.37-5.4951-21.171-26.966-33.841-47.957-28.299-20.991 5.5424-33.552 27.198-28.057 48.37 5.4951 21.171 26.966 33.841 47.957 28.299z" fill="#BFBFBF"/>
 <path d="m47.984 226.37c30.559 28.561 76.557-10.671 56.302-45.323-2.2744-3.8905-5.2274-6.8524-4.2563-3.8721 6.4731 19.925 0.49155 35.687-10.669 43.808-10.943 7.965-25.984 9.2976-38.025 3.0008-3.5361-1.8486-5.0027 0.84521-3.3512 2.3863z"/>
 <path d="m71.962 232.24c3.8907-0.82534 26.52-6.7365 31.836-25.509 1.6557-5.853 1.953-4.6772 1.4851-1.5056-2.3881 16.187-17.558 28.128-30.467 28.57-2.6195 0.27177-6.0565-0.88022-2.8541-1.5557z" fill="#fff"/>
 <path d="m23.999 87.889c-14.133 1.3798-24.478 14.042-23.11 28.297 1.37 14.262 13.924 24.707 28.057 23.327 14.133-1.3985 24.487-14.06 23.111-28.316-1.371-14.246-13.922-24.689-28.058-23.309z" fill="#BFBFBF"/>
 <path d="m12.335 133.42c0.15671 1.8321 2.6446 4.1858 6.5531 5.2664 3.3578 0.92841 12.014 3.3016 23.134-3.7775 11.12-7.0791 12.402-26.014 7.3474-31.583-1.5648-2.8209-3.5996-4.8746-1.9806-0.37261 4.0887 11.368-3.8563 22.001-10.709 26.925-6.8503 4.9232-15.538 2.5933-19.086 1.5024-3.5476-1.0909-5.4183 0.14713-5.2591 2.0397z"/>
 <path d="m26.685 135.96c1.0192-0.92549 6.1787-0.5472 10.837-3.074 4.6559-2.5262 10.19-8.0639 11.178-15.933 0.58175-4.6207 0.75646-3.4604 0.98806-0.94385-0.72263 13.082-12.65 20.308-19.472 21.261-1.8407 0.25748-5.0801 0.10033-3.5308-1.3106z" fill="#fff"/>
 <path d="m230.73 138.25c19.271-56.023-21.055-140.63-102.64-130.45-73.713 9.1923-74.902 87.445-9.9384 106.04 73.585 11.235 29.275 67.223 22.989 95.456-5.6351 25.309 59.467 29.474 89.584-71.044z" fill="#999"/>
 <path d="m180.31 182.01c-19.935-2.4881-48.622 42.907-21.573 37.59 27.045-5.3125-27.049 5.3163 0 0 13.001-1.9446 23.771-6.5743 33.413-17.674 12.572-14.47 31.352-45.726 36.783-65.922 4.5754-17.028 2.2756-43.409-2.441-18.622-4.8374 25.438-26.248 67.116-46.183 64.628z" fill="#F3F3F3"/>
 <path d="m46.4 218.32c4.6152 0.078199 7.4069 0.73357 12.08 4.0411 9.2385 3.872 26.22 1.4185 34.062-8.9937 7.8417-10.412 8.0992-24.758 5.1114-33.427-7.3089-21.216-38.359-20.841-52.231-3.2271-15.006 19.67-3.6384 41.529 0.97689 41.607z" fill="#999"/>
 <path d="m5.1831 120.01c0.91991 2.9218 3.2705 7.185 8.2341 7.8957 6.6283 0.94905 7.9834 3.9696 15.81 2.4026 7.8268-1.567 13.759-8.0364 16.133-15.192 2.7179-9.9017-1.3516-15.014-7.4764-19.578-6.1247-4.564-19.598-4.0732-27.638 3.3195-5.7141 5.2504-7.3027 14.039-5.0631 21.152z" fill="#999"/>
 <path d="m31.213 126.55c6.0139-1.5879 13.968-9.8532 10.019-16.164-4.8716-7.7755-18.444-1.1199-18.903 7.5369-0.46079 8.6599 2.5099 10.31 8.8839 8.6268z" fill="#F3F3F3"/>
 <path d="m76.37 219.84c5.1312-1.3549 20.851-7.8068 17.898-30.856-1.4943-11.675-7.8081 14.49-19.5 18.404-17.713 5.9286-15.723 17.027 1.6012 12.452z" fill="#F3F3F3"/>
</svg>
